<?xml version="1.0" encoding="UTF-8" standalone="no"?>
<!-- Created with Inkscape (http://www.inkscape.org/) -->

<svg
   xmlns:dc="http://purl.org/dc/elements/1.1/"
   xmlns:cc="http://creativecommons.org/ns#"
   xmlns:rdf="http://www.w3.org/1999/02/22-rdf-syntax-ns#"
   xmlns:svg="http://www.w3.org/2000/svg"
   xmlns="http://www.w3.org/2000/svg"
   xmlns:sodipodi="http://sodipodi.sourceforge.net/DTD/sodipodi-0.dtd"
   xmlns:inkscape="http://www.inkscape.org/namespaces/inkscape"
   width="622.31079"
   height="800"
   id="svg3867"
   version="1.1"
   inkscape:version="0.48.4 r9939"
   sodipodi:docname="Новый документ 3">
  <defs
     id="defs3869" />
  <sodipodi:namedview
     id="base"
     pagecolor="#ffffff"
     bordercolor="#666666"
     borderopacity="1.0"
     inkscape:pageopacity="0.0"
     inkscape:pageshadow="2"
     inkscape:zoom="0.35"
     inkscape:cx="-74.807218"
     inkscape:cy="734.06804"
     inkscape:document-units="px"
     inkscape:current-layer="layer1"
     showgrid="false"
     fit-margin-top="0"
     fit-margin-left="0"
     fit-margin-right="0"
     fit-margin-bottom="0"
     inkscape:window-width="1280"
     inkscape:window-height="1002"
     inkscape:window-x="1912"
     inkscape:window-y="-8"
     inkscape:window-maximized="1" />
  <metadata
     id="metadata3872">
    <rdf:RDF>
      <cc:Work
         rdf:about="">
        <dc:format>image/svg+xml</dc:format>
        <dc:type
           rdf:resource="http://purl.org/dc/dcmitype/StillImage" />
        <dc:title></dc:title>
      </cc:Work>
    </rdf:RDF>
  </metadata>
  <g
     inkscape:label="Layer 1"
     inkscape:groupmode="layer"
     id="layer1"
     transform="translate(108.15177,-319.0771)">
    <g
       id="g3902"
       transform="matrix(0.61579001,0,0,0.61579001,-41.55299,429.9606)">
      <path
         inkscape:connector-curvature="0"
         style="fill:#ffffff"
         d="m 535.66073,1118.5771 0.25,0.3437"
         id="path3819" />
      <path
         inkscape:connector-curvature="0"
         style="fill:#ffffff"
         d="m 535.91073,1118.9208 c 0,-0.02 -0.057,-0.2558 -0.062,-0.2812"
         id="path3821" />
      <path
         inkscape:connector-curvature="0"
         style="fill:#ffffff"
         d="m 535.84873,1118.6396 0.4687,0.1562"
         id="path3823" />
      <path
         style="fill:#000000"
         d="M 30.448231,6.9115697 C -104.12857,270.63866 -8.5160689,382.36852 -4.1224689,641.68445 -2.1380689,758.80188 -24.579669,908.07144 -108.15177,1119.0771 l 514.9375,0 c -50.9027,-45.9256 -97.1957,-81.8445 -133.0625,-135.53126 l 0,-43.4687 c 57.5686,111.12416 151.0315,144.46886 267.0625,178.99996 -9.6321,-38.5636 -31.5139,-84.295 -42.8125,-97.3125 27.0079,-1.6364 57.1314,4.6867 81.8437,-9.0625 28.176,-15.67616 57.1749,-41.22876 79.25,-63.46866 17.0973,-17.2249 48.4941,-25.2733 65.8438,-24.7188 66.7047,2.1319 120.0354,-96.6114 123.8438,-114.18748 -17.3773,2.47122 -34.1072,4.03924 -47.6876,-4.0625 -19.733,-11.77226 -25.6608,-30.81894 -17.125,-67.5 30.0481,-129.12367 108.2205,-260.69794 117.9376,-380.90625 5.1439,-63.63699 -26.0863,-104.86906 -60.4063,-144.1875 -40.5385,-48.8752 -27.1498,-96.9834 -18.5313,-156.53125 8.6807,-59.9773003 2.2378,-111.22101 -46.5,-143.125001 -45.8138,-29.989979 -89.3413,-24.287649 -140.4062,-21.249999 C 431.56913,-252.99936 116.59493,-161.90826 30.448231,6.9115697 z"
         id="path3825"
         inkscape:connector-curvature="0"
         sodipodi:nodetypes="ssccccccssscssscsscs" />
      <path
         style="fill:#ffffff"
         d="m 664.84823,-2.6728403 c -4.2664,111.1303703 -40.479,239.4140803 -125.3752,323.4374003 -87.3325,86.43462 -218.4156,178.10063 -224.5313,391 2.7493,51.82282 32.5831,77.6533 109.8126,56.03125 3.3899,16.75315 -31.3735,69.11413 -52.5938,78.15623 -147.9234,-63.13774 -53.3871,-275.97621 -10.4688,-345.81248 -77.0086,110.1452 -143.5907,297.77711 1,346.03118 1.5899,31.6888 -62.6818,68.8033 -88.9687,51.5938 l 0,11.7188 c 57.7786,125.70606 156.8097,153.09726 246.8125,182.84366 -20.048,-45.5553 -44.6709,-88.5376 -77.9688,-128.56246 -16.4759,-21.0947 -18.5915,-55.6658 -11.8437,-76.375 18.6726,-57.3064 38.1137,-119.31521 62.75,-176.93748 14.9247,-34.90772 48.1208,-57.14621 83.6563,-52.15625 3.4822,0.489 8.9001,1.08955 12.8124,1.25 26.1712,1.07332 52.4352,4.42861 78.5313,1.1875 19.7574,-2.45385 37.8144,-5.27929 46.9063,-8.5625 6.8535,-2.4749 7.6147,-2.54806 22.0937,-1.875 20.5433,0.95496 24.0221,0.76229 31.5,-2.25 19.4137,-7.82038 26.9704,-25.4066 25.5,-48.21875 -0.3279,-5.08749 -8.3104,-32.33801 -12.0313,-60.40625 -0.9887,-7.45783 5.7892,-16.49757 12.5626,-23.59375 3.3403,-3.49954 5.9177,-7.0968 5.75,-7.96875 -6.1483,-5.62013 -26.4794,-12.39312 -34.6563,-25.84375 -1.74,-2.86218 -2.2695,-2.84037 -4.3125,0.75 -3.1411,5.52018 -7.1558,2.75737 -8.8438,-6.09375 -0.5314,-2.78617 -0.692,-9.12471 5.5626,-8.3125 3.0828,0.40034 2.5898,-2.1819 4.25,-7.75 15.6524,-52.49696 44.9452,-66.96237 62.4687,-80.59375 2.6046,-1.52244 4.7187,-3.425 4.7187,-4.25 -6.5237,-8.65342 -15.7093,-16.08367 -18.2187,-24.5625 -8.3101,-28.07795 3.7048,-38.99824 18.9063,-55.40625 5.4132,-5.84285 15.3636,-19.23721 17.875,-24.09375 3.3511,-6.48042 0.8496,-23.12684 -7.4197,-25.39732 -67.1481,-18.43664 -118.7927,-43.86383 -138.4553,-104.72768 -3.4676,-10.7338 -5.1431,-23.47413 -8.1876,-46.3125 -1.7722,-13.29448 -14.1663,-92.3572403 -29.5935,-97.9374003 z"
         id="path3827"
         inkscape:connector-curvature="0"
         sodipodi:nodetypes="cscccccccccssssssssssscsscssccssssssc" />
      <path
         style="fill:#000000"
         d="m 672.97323,98.35841 c -8.686,5.98742 -14.7436,8.3688 -24.1161,12.14286 l 1.0357,-12.36607 c 5.7003,-2.22577 12.4183,-4.47639 16.8304,-7.49554 6.2102,-4.24957 16.2802,0.80478 6.25,7.71875 z"
         id="path3829"
         inkscape:connector-curvature="0"
         sodipodi:nodetypes="sccss" />
      <path
         style="fill:#000000"
         d="m 680.47323,127.26466 c 10.7032,8.2949 -9.9183,52.8752 -15.625,64.5625 -3.003,6.02605 -3.9281,6.52112 -1.375,10.21875 9.8118,14.21035 12.4951,42.08398 13.0625,53.71875 8.2229,1.46629 15.024,-6.92813 18.791,-10.06254 -1.2921,3.72183 -4.3539,6.952 -7.0153,8.764 -10.2283,6.96375 -9.9299,11.0663 -11.1623,18.65332 -0.7231,4.45176 -0.7522,9.56559 -1.1134,15.95772 -20.651,8.41254 -56.5801,11.08055 -76.8438,7.46875 -1.1291,-18.84507 2.2773,-32.04699 6.7593,-48.79443 1.5086,-5.6371 3.7453,-26.20346 4.8836,-34.66986 3.243,4.19544 5.5546,10.04863 6.0304,19.67853 7.3437,-16.16513 6.7503,-29.5158 5.9517,-42.87495 6.6823,0.60771 6.4124,14.63811 7.2188,20.34821 6.2072,-21.28507 6.3803,-35.76089 6.7009,-49.50446 8.8731,4.32687 4.8006,32.55954 4.3929,37.81696 11.0223,-18.79071 10.0299,-46.14391 10.9062,-54.78125 7.2719,9.60094 2.1699,38.69657 1.4821,44.96429 15.1239,-27.42787 9.6745,-54.50406 7.8929,-57.83929 5.13,6.2506 9.6396,12.07826 7.4645,30.26732 7.6183,-13.20028 11.8662,-22.06983 11.598,-33.89232 z"
         id="path3831"
         inkscape:connector-curvature="0"
         sodipodi:nodetypes="ccsccssccsccccccccccc" />
      <path
         style="fill:#ffffff"
         d="m 645.97323,249.07716 c 7.6689,7.37733 10.9892,8.4459 21.4375,11.96875 -11.0108,9.9473 -42.3232,21.44113 -52.8482,9.83929 1.6862,-4.32879 19.4942,-29.38781 20.7232,-32.55804 1.869,2.50468 4.0029,4.49101 6.0429,5.95603 6.9566,-5.44328 9.217,-7.84837 13.2845,-12.13252 -1.3349,7.53087 -4.0221,9.91009 -8.6399,16.92649 z"
         id="path3833"
         inkscape:connector-curvature="0"
         sodipodi:nodetypes="ccccccc" />
      <path
         style="fill:#000000"
         d="m 433.65913,456.673 c -41.7911,68.53285 -60.2957,140.38065 -27.6857,190.87291 -53.8315,-52.68054 -6.088,-145.02032 25.0625,-207.8125 -28.3114,38.50969 -56.6333,92.828 -66.9375,130.84375 -15.1884,56.03531 8.1308,144.62771 79.875,116.5 -85.8132,37.92583 -102.78,-68.52238 -82.0937,-135.15625 -85.0446,114.31381 15.9274,233.44827 108.6562,123.9375 -10.1255,2.48266 -18.7675,2.84197 -30.7812,-5.53125 24.7632,4.40442 62.4658,-33.97194 62.9687,-47.9375 -24.6097,2.39626 -44.079,14.13143 -61.375,-5.875 -72.3843,-83.72769 39.865,-222.68788 90.3437,-278.375 -35.8719,34.44125 -74.6205,80.13918 -98.033,118.53334 z"
         id="path3835"
         inkscape:connector-curvature="0"
         sodipodi:nodetypes="sccscccccscs" />
      <path
         inkscape:connector-curvature="0"
         id="path3837"
         d="m 832.62053,382.01466 c -3.1918,-0.1046 -6.6829,2.43286 -10.25,4.78125 -23.0061,15.14668 -55.4032,54.4657 -53,76.40625 0.3729,3.4045 3.0094,3.21083 8.5938,-0.4375 12.797,-8.36034 71.7422,-58.935 60.0312,-77.09375 -1.662,-2.57716 -3.4599,-3.59349 -5.375,-3.65625 z m -24.7812,73.21875 c -9.5817,-0.0367 -21.557,4.48805 -29.4062,12.625 -8.5453,8.85843 -8.5516,10.30093 0,18.71875 12.8615,12.65995 30.8216,20.99058 38.9374,17.5625 5.8814,-2.48424 13.1038,-19.1874 12.2813,-26.5 -1.0281,-9.14064 -3.3796,-14.06781 -10.8437,-19.4375 -2.7579,-1.98397 -6.6135,-2.95206 -10.9688,-2.96875 z"
         style="fill:#fd4ea5;fill-opacity:1" />
      <path
         style="font-size:medium;font-style:normal;font-variant:normal;font-weight:normal;font-stretch:normal;text-indent:0;text-align:start;text-decoration:none;line-height:normal;letter-spacing:normal;word-spacing:normal;text-transform:none;direction:ltr;block-progression:tb;writing-mode:lr-tb;text-anchor:start;baseline-shift:baseline;color:#000000;fill:#000000;fill-opacity:1;stroke:none;stroke-width:6;marker:none;visibility:visible;display:inline;overflow:visible;enable-background:accumulate;font-family:Sans;-inkscape-font-specification:Sans"
         d="m 753.91073,299.20216 c -5.369,7.55458 -7.7232,15.26068 -6.5803,26.26602 1.991,19.17161 28.2741,23.22019 41.7678,8.67148 9.6062,-10.35732 16.5166,-32.97934 29.1875,-37.25 1.5693,-0.52892 3.1619,-2.51799 2.1747,-3.84761 -2.365,-3.18525 -4.5668,-1.15971 -8.3933,0.66292 -12.5299,5.96824 -18.6079,29.99442 -27.5314,36.52844 -23.9007,17.50062 -36.9747,-8.15925 -25.625,-27.6875 3.1445,-5.41036 16.6532,-17.6367 19.8945,-22.03824 -6.2005,-3.13993 -19.1245,10.57564 -24.8945,18.69449 z"
         id="path3843"
         inkscape:connector-curvature="0"
         sodipodi:nodetypes="sssssssscs" />
    </g>
  </g>
</svg>
