<?xml version="1.0" encoding="utf-8"?>

<!DOCTYPE svg PUBLIC "-//W3C//DTD SVG 1.1//EN" "http://www.w3.org/Graphics/SVG/1.1/DTD/svg11.dtd">
<svg version="1.1" id="Layer_1" xmlns="http://www.w3.org/2000/svg" xmlns:xlink="http://www.w3.org/1999/xlink" x="0px" y="0px"
	 viewBox="-21 -20.5481 2133 2087.0962" enable-background="new -21 -20.5481 2133 2087.0962" xml:space="preserve">
<g>
	<path fill="#333333" d="M1007.16,7.66c16.47-2.52,33.18-2.39,49.78-1.97c15.4,0.69,30.7301,2.55,45.8701,5.48
		c27.37,4.74,54.46,11.12,81.08,19.07c38.04,10.86,74.47,27.9,106.1,51.79c29.23,22.08,56.96,46.18,82.73,72.23
		c27.98,25.31,55.01,51.64,81.9501,78.04c26.3199,25.44,49.12,54.35,68.99,85.05c19.74,31.6,39.4099,63.26,58.83,95.06
		c21.0601,33.66,39.1801,69.14,54.64,105.7c14.8199,36.83,31.8099,72.82,51.49,107.32c18.66,32.88,41.1,63.52,65.95,91.99
		c25.41,29.34,54.7201,55.28,86.6801,77.29c15.1801,10.2599,30.53,20.27,45.85,30.32c-15.4399-7.5-30.1-16.55-44.7-25.5601
		c-33.9401-20.91-64.88-46.72-91.35-76.53c-24.91-27.55-48.9401-55.91-71.8501-85.14c-23.7-30.66-42.5199-64.94-56.7899-100.93
		c-15.66-37.62-34.24-74.01-55.38-108.84c-9.13-15.08-18.1801-30.21-27.8101-44.97c8.62,18.63,16.1901,37.72,24.0901,56.66
		c16.36,39.22,34.1399,77.84,52.6299,116.11c16.7001,33.7,35.2401,66.46,54.42,98.81c20.22,34.5,42.11,67.98,62.8201,102.18
		c20.7699,33.9,40.6599,68.33,62.1499,101.79c12.37,18.87,25.13,37.49,38.3,55.82c22.4301,31.56,41.63,65.44,56.9301,101.01
		c14.1,32.97,25.6699,66.9901,35.23,101.53c9.87,37.0901,18.1899,74.5801,25.71,112.2101c5.88,32.0299,13.55,63.73,23.36,94.7799
		c8.99,27.6801,19.02,55.04,30.21,81.91c11.2001,27.34,26.2401,52.89,37.7401,80.1c-17.16-19.7999-31.7301-41.7999-43.79-65.0499
		c-12.5801-24.75-23.61-50.36-31.85-76.89c-9.27-28.8-14.5-58.64-20.77-88.17c-3.28-15.38-6.12-30.84-9.15-46.27
		c-3.75-18.98-6.98-38.08-11.96-56.7899c-5.49-21.5601-12.61-42.6901-20.99-63.29c-6.4401-15.5601-13.5901-30.8201-20.7101-46.0701
		c-17.5399-37.1799-35.9-73.9999-56.12-109.7999c-19.0499-34.12-40.49-66.81-61.58-99.67c-21.12-32.59-43.7001-64.18-66.04-95.93
		c-11.01-15.99-21.83-32.1-32.8199-48.1c8.0499,18.79,16.53,37.41,24.9199,56.06c10.15,18.78,19.9601,37.76,28.51,57.33
		c9.1901,20.33,16.89,41.29,24.9301,62.1c7.39,19.12,14.4299,38.37,21.63,57.56c14.91,39.16,28.46,78.84,40.21,119.0701
		c11.9401,40.2999,19.21,81.9399,22.1901,123.86c2.0699,24.11,3.58,48.2699,6.26,72.3199c1.6499,15.09,3.1399,30.1901,4.87,45.28
		c3.8899,30.53,14.86,60.2,32.3199,85.58c16.96,25,39.41,46.53,66.08,60.92c6.8601,3.85,14.15,6.8099,21.37,9.91
		c-9.6799-1.3301-19.0399-4.3201-28.35-7.17c-25.72-7.88-49.37-23.76-64.62-46.13c-11.22-15.79-17.1-34.46-23.38-52.5601
		c-10.64-30.96-18.4-62.86-23.99-95.1c-3.61-20.28-7.41-40.53-10.7999-60.85c-3.1001-17.72-5.67-35.53-8.75-53.25
		c-7.8601-43.29-18.1801-86.22-32.88-127.73c-8.2001-23.58-16.89-47-26.52-70.04c-15.01-35.2599-28.92-70.99-41.97-107.02
		c-13.65-38.53-31.9401-75.47-54.8301-109.36c-9.1-13.58-17.65-27.54-27.0499-40.9c11.84,41.11,22.7,82.55,36.9399,122.93
		c14.77,41.83,30.14,83.44,44.9,125.26c13.38,39.35,26.21,78.98,35.66,119.48c5.7799,24.62,10.58,49.47,14.2599,74.49
		c3.4,21.7001,6.78,43.41,10.9801,64.97c6.35,32.38,13.26,64.65,19.86,96.99c3.86,18.03,7.27,36.17,11.48,54.14
		c5.24,21.28,12.53,42.0601,21.67,61.99c6.21,13.3601,12.73,26.6801,21.2,38.8c18.54,26.89,46.89,46.6901,78.3199,55.4301
		c10.99,2.97,22.29,5.38,33.74,5.12c-36.0199,3.9199-73.6299-4.41-103.71-24.87c-4.27-3.29-9.53-5.1801-14.9299-5.16
		c7.7899,29.02,25.21,55.89,50.5199,72.53c12.5,8.5599,26.8401,13.73,41.0701,18.62c24.27,8.4099,49.52,13.6599,74.9399,17.1
		c-12.73-0.4401-25.49,0.4-38.1699-0.96c-34.8201-3.0701-69.62-10.3101-101.5-24.9701c12.09,24.0801,27.58,46.3501,44.9399,66.92
		c29.53,35.47,67.48,63.79,109.74,82.3099c24.4601,10.3601,49.9601,18.1801,76.0001,23.4601
		c-24.1602,8.01-50.3201,7.5399-75.04,2.5399c-15.8201-3.72-31.4401-8.2-47.02-12.7899c-22.42-6.09-43.8201-15.62-63.8301-27.37
		c-15.8199-9.11-30.2999-20.25-44.99-31.02c-11.97-8.64-23.8999-17.33-36.1499-25.5701
		c7.8199,26.0601,24.5699,49.28,46.3999,65.4801c39.4701,28.14,85.6901,46.4199,133.4701,54.24c22.48,3.75,44.96,7.47,67.5699,10.39
		c-5.7,1.9399-11.3601,4.9399-17.54,4.48c-16.64-0.2001-33.2899,0.4199-49.8999-0.73c-34.1001-2.29-69.02-7.3-99.7201-23.1801
		c2.79,6.61,5.02,13.4301,7.4601,20.1801c11.2,21.2899,22.24,42.6699,33.0399,64.1699c6.9401,13.05,12.64,27.11,22.9701,37.98
		c6.2699,6.79,14.71,12.3,24.1899,12.7001c13.38,0.39,26.72,2.9,40.12,1.51c10.97-1.2101,21.87-4.27,31.39-9.98
		c3.9099-2.4701,8.6299-3.01,13.1699-2.9801c-10.1199,13.88-24.2899,25.2101-40.84,30.3101c-11.84,3.83-24.59,4.02-36.8199,2.33
		c-13.64-2.5499-28.5-3.5-41.38,2.55c-3.6,1.8199-7.37,3.73-9.98,6.87c-1.7001,3.2-0.62,6.95-0.04,10.3199
		c4.9,23.51,4.28,48.37-3.23,71.27c-7.65,23.62-22.0601,44.78-40.14,61.66c3.15-11.51-0.55-23.33-2.22-34.76
		c0.14-3,1.11-5.86,1.7899-8.74c-9.1399,2.99-16.0599,10.27-20.75,18.4299c-2.5599-6.45-5.7899-12.96-11.2899-17.4099
		c-4.3201-3.8201-10.0601-5.8201-15.78-5.8101c-5.89-0.46-12.1,1.9-17.65-0.96c-6.6799-3.36-12.6799-7.9-18.9299-11.96
		c-12.4801-8.51-24.4801-17.6801-36.2101-27.16c-1.5,14.3199-0.59,28.99,3.4401,42.86c-4.5601-11.03-11.88-20.6-20.0801-29.16
		c-0.3199-0.0299-0.96-0.0699-1.2799-0.09c-2.02,5.1801-4.8101,10.8-10.38,12.87c-7.2101,2.1901-14.74-0.96-20.64-5.02
		c-6.9401-10.5-12.0701-22.1-16.67-33.78c1.76,13.2301,4.14,26.4901,3.49,39.91c-0.34,10.64-1.51,21.41-5.12,31.49
		c-3.5699-6.24-5.0699-13.4099-7.1699-20.22c-5.04,6.35-8.5901,14.33-15.6101,18.8199c-3.6899-4.1699-3.47-10.99-7.95-14.73
		c-3.75,7.41-7.27,14.98-11.96,21.88c-1.52-3.5599-0.8-7.62-1.4601-11.35c-2.97-30.1801-8.1599-60.53-20.12-88.5699
		c-8.6499-21.1901-20.6699-40.9701-35.4199-58.4601c-1.16,30.04-0.41,60.16,2.47,90.0901c2.1,25.46-1.92,52.7899-17.42,73.7799
		c-1.7699-13.26-5.7799-26.49-13.5199-37.5299c-7.3701-10.64-17.9-19.05-29.79-24.1001c2.1799,2.8201,5.03,5.42,5.84,9.0601
		c0.76,3.0699-0.2999,6.17-1.3199,9.0599c-3.23-4.46-5.36-9.5599-8.3101-14.1699c-0.04,5.74,0.13,11.49-0.1,17.25
		c-5.5699-7.47-9.64-15.98-14.5-23.9301c-4.9301-8.46-9.48-17.14-14.5699-25.49c4.08,9.78,8.7599,19.3,13.0199,29.01
		c3.64,8.47,8.3401,16.71,9.4701,26.02c1.4399,9.02-0.67,18.29-4.6101,26.4399c-13.96-20.22-26.3999-41.83-43.84-59.37
		c-9.49-9.6-19.58-18.5699-30.02-27.11c-14.4199-11.7999-26.89-25.8099-37.8999-40.7999c9.97,16.49,17.74,34.9199,18.6599,54.3999
		c-8.2999-12.0599-17.12-24.3899-29.84-32.1699c1.52,6.4099,4.9301,12.11,7.63,18.0699c7.0599,14.98,13.61,30.2101,19.1899,45.8
		c0.4301,1.2999,0.78,2.6699,1.0801,4.0499c-7.75-13.36-16.75-25.98-26.37-38.0499c-1.7101-2.17-3.51-4.27-5.48-6.1801
		c15.0199,21.99,19.87,50.0801,15.7899,76.17c-0.2899,5.92-5.6,9.58-9.6699,13.12c1.23-7.9401,0.73-16.3101-2.77-23.63
		c-13.25-27.3-27.84-54.01-44.75-79.23c-2.91-4.1801-5.5601-8.54-8.84-12.4401c-1.1801,9.8501,2.0499,19.39,4.3899,28.8301
		c3.63,13.6699,7.7001,27.3199,13.8201,40.11c-4.4301-3.7101-9.5801-6.42-14-10.14c-13.97-10.95-25.15-25.58-31.36-42.25
		c-3.49-8.72-5.11-17.98-6.86-27.14c-12.26,28.08-25.4,55.79-39.41,83.04c-7.97,14.52-17.9,29.0299-32.6901,37.2799
		c3.63-8.11,5.52-16.96,5.3401-25.85c-3.41,4.03-7.6001,7.27-11.4301,10.87c-2.38,2.1801-4.62,4.55-7.34,6.3301
		c1.76-4.87,5.11-8.9401,7.1799-13.67c2.9401-6.14,5.6101-12.4399,7.4401-19c-21.36,11.67-43.37,22.11-65.75,31.64
		c21.0499-20.7,39.5599-44.13,53.77-70.0601c13.83-25.2899,21.71-53.26,28.51-81.12c3.14-12.86,5.8099-25.83,8.36-38.8199
		c-6.3401,10.01-12.55,20.11-18.5901,30.3199c-5.3899,9.92-11.21,19.7301-18.8099,28.15c-4.13,4.62-8.79,8.9301-14.35,11.78
		c8.0399-15.59,16.74-30.83,24.95-46.33c-6.45,6.2899-12.6,12.8899-18.74,19.48c-5.41,6.4299-11.34,12.6799-18.77,16.7799
		c8.27-10.97,16.9501-21.6499,24.78-32.95c14.87-21.24,28.78-43.1899,40.86-66.14c-31.4399,17.8101-62.6799,35.9401-93.9299,54.0801
		c-28.0901,15.8899-57.2201,30.0199-87.3301,41.6599c-7.0499,2.61-14.0699,5.4701-20.38,9.6
		c-15.2,9.5601-26.01,24.9701-32.0699,41.6801c-1.4,3.3-1.92,6.92-3.5701,10.12c-5.0199-22.25-3.9099-46.5,6.49-67.11
		c6.91-14.55,18.64-25.84,28.7301-38.13c14.59-16.77,28.3899-34.2,42.72-51.1899c22.22-26.0901,43.9299-52.66,67.89-77.1901
		c6.98-7.29,14.15-14.39,21.39-21.42c-6.9401,4.87-14.5801,8.5901-21.74,13.0901c-18.01,10.74-35.54,22.27-52.6001,34.46
		c-13.0599,9.48-26.1,19.04-38.3099,29.61c-14.88,13.39-28.41,28.64-37.6801,46.5c-2.59,4.64-4.38,9.66-6.6599,14.4501
		c-2.3-8.8601,0.5299-17.8501,2.99-26.3401c5.62-18.26,16.95-34.1799,30.13-47.78c11.5-12.1,25.37-21.5199,38.96-31.0599
		c13.6-9.25,27.48-18.13,42.0599-25.76c-18.7799,2.38-36.12,10.55-52.8199,19.03c-11.88,6.01-23.26,12.98-34.04,20.78
		c-7.2899,4.88-13.47,11.21-18.49,18.38c4.22-15.7401,14.2101-29.7301,27.27-39.4c6.04-4.66,12.99-7.9601,19.02-12.63
		c-8.52-0.01-16.41,3.4199-24.25,6.2999c12.7999-11.96,28.16-20.9099,44.29-27.5599c1.7599-0.86,4.0699-1.1901,5-3.14
		c-11.41,3.8199-22.66,8.15-34.2401,11.46c-6.6899,2.4301-13.8899,2.3301-20.87,3.04c-19.6599,1.33-39.86,0.9301-58.7499-5.2
		c12.54-1.9701,25.05-4.14,37.56-6.28c9.0599-1.8101,18.3-2.8301,27.1899-5.4601c19.7401-5.25,37.87-17.46,49.1001-34.6499
		c4.3099-6.42,7.76-13.41,10.3199-20.6901c-5.5599,4.4501-10.64,9.48-16.45,13.63c-14.3501,10.64-30.9401,18.6901-48.66,21.5801
		c-16,2.1299-32.48-0.2401-47.41-6.3201c3.0601,0.47,6.02,1.46,9.0801,2.01c29.61,3.77,59.3899-9.3199,80.0299-30.1801
		c6.39-6.5299,11.62-14.09,16.15-22c14.3101-22.0499,33.12-41.5199,55.67-55.2c5.6-2.45,9.26-7.8099,11.9299-13.0599
		c4.99-27.75,12.9701-55.01,24.16-80.92c-13.78,14.24-25.71,30.25-35.67,47.37c-6.72,11.4399-13.0599,23.1899-17.6799,35.66
		l-0.47-0.15c2.24-16.76,7.97-32.85,15.63-47.87c9.1599-18.78,21.22-35.92,33.33-52.89c11.04-15.45,23.09-30.13,34.78-45.08
		c10.7899-13.91,22.1599-27.4,32.11-41.9401c2.37-3.33,4.6799-6.7,7.16-9.95c0.5199-14.53,2.1799-29.1001,6.3899-43.05
		c-7.2699,5.85-13.47,12.95-20.2799,19.34c-25.78,26.5601-52.4501,52.4601-75.38,81.61
		c-11.5801,14.9501-22.4,30.7201-29.8201,48.1901c-8.3099,18.87-14.74,39.11-14.36,59.9399c0.52,19.63,0.51,39.39-1.9199,58.9
		c-1.88-15.95-3.6001-31.9199-4.5601-47.96c-0.4301-9-1.42-18-0.75-27.01c0.8-20.5699,5.88-41.29,16.73-58.9301
		c5.6801-9.63,13.53-17.6699,20.53-26.3099c10.71-12.92,21.55-25.72,33.04-37.95c26-28.9801,53.11-56.91,80.5199-84.53
		c3.75-4.0601,5.0601-9.62,7.55-14.42c4.28-9.13,9.0699-18,14.16-26.7c-14.11-45.67-17.0701-93.79-18.61-141.28
		c-17.66,36.45-34.8301,73.1801-49.52,110.95c-16.04,39.8201-29.49,80.66-40.67,122.11c-2.5699,11.2001-5.35,22.3601-7.72,33.6101
		c-1.59-7.7301-1.0701-15.7001-0.63-23.51c1.78-23.3301,9.0699-45.8101,17.84-67.36c14.63-33.4501,29.9-66.8601,39.52-102.1801
		c6.6801-29.34,18.1801-57.28,30.6801-84.5601c-26.7101,26.4-54.3301,52.04-84.4,74.6201c-31.42,23.6399-65.09,44.3199-100.59,61.24
		c-41.8201,23.6499-86.25,43.1799-133.05,54.5c-24.47,5.88-49.61,9.6699-74.83,9.1899c-5.87,0.02-11.73-0.03-17.59,0.04
		c2,26.45,3.43,52.95,4.04,79.47c0.81,30.03,0.9,60.13-1.37,90.11c-1.24,19.11-3.84,38.22-9.4,56.59
		c-6.19,20.53-16.12,40.3601-31.3,55.7301c-1.43,1.1399-1.46,3.0199-1.71,4.7c-1.99,14.62-4.22,29.2-6.5699,43.76
		c-2.51,16.1-7.88,31.85-16.45,45.75c-9.66,15.88-22.99,29.37-38.29,39.86c-6.9,4.83-14.5099,8.5601-21.16,13.76
		c-6.32,4.99-13.03,9.49-18.98,14.9299c-15.15,13.6001-27.57,30.0801-37.14,48.02c-7.71,13.8101-12.38,28.99-18.27,43.61
		c-5.51,13.78-10.19,27.8601-14.98,41.89c-6.06,16.9601-11.97,34.27-13.01,52.4c-1.49,18,2.33,36.62,12.02,51.98
		c4.16,6.7101,9.35,12.7101,15.05,18.17c-7.66,0.08-15.32-0.14-22.93-0.87c-17.16-0.29-33.59-8.65-45.29-20.98
		c-4.03-4.1-7.4-8.76-10.72-13.4301c-3.54,12.41-7.07,24.87-12.17,36.75c-2.73,6.4401-5.94,12.77-10.5,18.13
		c7.03-31.74,13.09-63.72,17.33-95.96c-5.6,17.38-14,33.72-23.85,49.0499c-9.33,14.49-20.21,28.1001-33.3,39.38
		c-14.44,12.3401-31.8,20.5801-49.07,28.17c-21.23,8.66-43.44,15.6-66.41,17.4301c-22.85,1.34-45.85-0.67-68.21-5.52
		c11.42,0.02,22.87,0.7999,34.3,0.12c21.58-1.61,42.97-6.67,62.7-15.61c17.91-8.02,34.12-19.4,48.89-32.2201
		c15.09-13.25,28.87-28.09,40.16-44.73c10.53-15.2999,19.12-31.88,26.16-49.0499c4.24-11.0901,8.55-22.28,10.87-33.9501
		c-4.3,6.1801-10.22,10.99-15.51,16.3c-16.97,16.03-35.59,30.3199-55.38,42.6899c-14.25,8.61-28.8,17.4601-45.12,21.48
		c-24.13,6.1001-49.93,1.39-71.97-9.5499c10.5-2.66,21.39-1.33,32.09-1.63c24.09-0.53,48.05-7.0701,69.08-18.83
		c14.35-7.8101,26.95-18.3401,38.81-29.4601c26.93-26.0599,49.71-56.72,65.02-91.01c8.53-20.01,13.98-41.2799,16.6-62.86
		c3.54-27.9299,1.31-56.1,1.49-84.14c-0.25-16.0399-0.52-32.08-0.63-48.12c-3,19.9701-10.52,38.86-18.32,57.38
		c-13.93,32.85-33.02,63.4401-55.9,90.8101c-27.23,31.37-55.37,61.99-85.22,90.88c-12.33,12.35-24.68,24.6899-37.02,37.0299
		c-12.92,13.0701-25.46,26.4901-38.72,39.2201c-25.82,24.76-53.19,48-82.57,68.4299c-18.88,12.8301-41.72,20.35-64.65,19.66
		c-18.14,0.3199-35.9-4.53-52.96-10.25c-35.43-12.14-67.93-32.15-95.62-57.28c-20.29-18.1-39.29-37.7-56.51-58.74
		c27.16,23.37,55.54,46.4501,88.96,60.23c13.38,5.51,28.86,6.37,42.51,1.3c9.36-3.48,18.38-7.95,26.75-13.4
		c-12.86,2.01-26.29,1.77-38.65-2.64c-17.42-5.75-31.08-18.53-44.5-30.46c-16.86-15.72-33.69-31.6901-47.71-50.0601
		c-1.74-2.37-3.95-4.5399-4.7-7.47c11.69,13.3,24.44,25.76,38.76,36.26c12.97,9.49,26.34,19.01,41.74,24.13
		c8.05,2.6901,16.46,4.29,24.94,4.77c-6.17-2.49-12.35-5.03-17.99-8.59c-11.54-7.1001-21.09-17.15-28.39-28.5
		c-3.87-6.1901-7.81-12.55-9.3-19.79c-1.68-6.9301-1.19-14.15,0.3-21.05c1.8,7.41,3.83,14.92,8.11,21.3501
		c6.35,10.48,17.6,17.35,29.48,19.7c9.56,1.48,19.43,2.4299,28.98,0.41c13.45-2.87,24.89-10.9401,36.94-17.13
		c-12.11,1.8199-25.05,2.34-36.44-2.91c-8.88-4.21-16.69-10.77-22.26-18.87c6.2-1.21,12.41-2.39,18.7-2.89
		c-16.11-7.09-30.96-18.53-39.47-34.1899c10.95,2.45,22.14,5.33,33.44,3.6799c20.46-2.83,40.11-9.5599,59.52-16.4
		c10.6-3.99,21.23-7.9399,31.65-12.3999c-13.57,3.3099-28.34,3.9199-41.43-1.64c5.34-2.92,10.98-5.7201,15.07-10.3401
		c-9.55,0.27-19.39-0.2-28.07-4.64c15.79-5.71,31.09-13.0699,44.57-23.1899c18.2-13.15,33.67-29.98,45.62-48.97
		c-15.41,12.48-32.2,23.0699-48.39,34.47c-17.85,12.05-35.4,24.53-53.11,36.77c-7.37,4.99-14.49,10.38-22.21,14.84
		c-17.79,10.46-37.73,17.12-58.19,19.76c-11.3,1.8-22.78,1.37-34.18,1.34c-19.61-0.7-40.07-3.73-56.87-14.58
		c-6.85-4.54-12.67-10.75-16.28-18.17c7.19,4.79,15.15,8.3,23.31,11.0801c10.92,3.71,22.33,6.63,33.95,6.23
		c10.62,0.39,21.07-1.72,31.45-3.6901c14.21-2.99,28.36-6.24,42.43-9.85c7.83-1.86,15.68-3.9299,22.8-7.7999
		c19.47-10.26,35.04-26.64,47.64-44.4401c-15.12-0.15-30.34,1.3-45.36-1.03c-18.37-2.5499-36.51-9.48-50.53-21.85
		c-7.48-6.67-14.08-14.52-18.62-23.48c9.27,10.29,22.03,18.3099,36.2,18.78c35.37,4.7799,72.31,1.11,105.12-13.42
		c-6.99,1.26-14.06,2.0701-21.17,1.76c-19.73,0.87-40.13-4.8-55.56-17.39c-13.46-10.87-21.95-26.5499-27.46-42.6799
		c9.53,11.59,21.78,21.36,36.24,25.9099c12.79,4.3,26.64,4.16,39.86,2.26c11.02-2.2,22.26-4.35,32.28-9.6799
		c19.54-9.8,34.62-26.7001,45.38-45.4501c-6.6,4.25-12.02,10.24-19.15,13.7101c-10.78,5.8999-23.96,6.1899-35.53,2.5499
		c-16.53-5.59-34.07-13.6799-43.16-29.4199c5.21,5.5699,10.47,11.2,16.9,15.4199c8.05,5.3201,17.18,10.17,27.12,9.8101
		c7.12,0.3199,14.1-1.78,20.52-4.7001c14.46-7.02,27.54-16.6699,39.13-27.77c2.92-2.33,4.19-5.9199,5.59-9.23
		c5.73-15.2,9.14-31.1899,11.21-47.27c3.8-31.9299,1.31-64.96-10-95.22c-8.57-24.84-15.28-50.2999-20.67-76
		c-4.38-20-7.73-40.46-6.03-60.99c1.11-22.21,8.8-43.22,15.05-64.34c5.74-20.64,13.86-40.5,20.39-60.87
		c-12.46,19.14-22.26,39.9199-30.51,61.1899c-5.6,13.9601-10.08,28.4-12.66,43.24c-4.65,26.1001-3.65,52.77-1.72,79.0901
		c1.62,21.86,5.38,43.5199,10.69,64.7799c6.13,24.0901,10.99,48.5,15.07,73.01c5.67,30.5601,7.27,62.2001,1.35,92.8501
		c-29.67-49.7001-49.11-105.16-59.7-161.9501c-5.2-25.01-10.29-50.0499-15.94-74.96c-4.07-19.3301-9.06-38.4601-12.7-57.89
		c-4.68-24.47-8.28-49.17-9.99-74.04c-1.75-26.2-0.35-52.63,4.71-78.4199c2.39-12.8201,5.88-25.4,8.98-38.0601
		c7.58-30.26,15.07-60.53,22.95-90.71c11.67-43.66,28.13-85.92,47.59-126.66c6.96-14.75,14.57-29.18,22.52-43.41
		c21.32-36.77,41.28-74.36,59.05-112.97c7.97-16.48,16.04-32.92,25.02-48.88c9.23-16.96,19.19-33.51,28.52-50.42
		c12.29-22.06,24.89-43.97,36.51-66.39c-25.94,28.04-51.92,56.06-76.58,85.24c-10.92,12.81-22.1,25.42-32.5,38.67
		c-24.93,30.95-46.14,64.6-68.39,97.46c-9.71,14.07-18.73,28.61-28.03,42.95c-10.61,16.72-21.76,33.09-31.6,50.28
		c-11.9,20.27-22.12,41.49-31.14,63.2c-6.69,16.15-11.79,32.98-14.79,50.22c-3.18,18.81-3.78,38.03-2.12,57.03
		c1.78,25.65,5.33,51.24,12.16,76.0601c-16.45-42.89-22.77-89.51-19.22-135.26c1.65-20.44,6.15-40.55,12.17-60.12
		c5.73-18.82,13.22-37.11,22.37-54.53c9.16-17.74,20.46-34.23,30.71-51.34c9.36-15.5699,18.99-30.98,28.4-46.52
		c9.49-15.26,18.25-30.97,28.09-46.02c10.53-16.24,21.85-31.96,33.84-47.15c11.82-14.8,24.32-29.03,36.32-43.67
		c24.12-29.18,49.12-57.61,73.3-86.74c14.72-17.58,29.67-34.97,44.76-52.23c10.8-11.78,20.11-24.78,29.07-37.98
		c22.42-33.05,42.49-67.62,63.09-101.81c5.06-9,11.01-17.54,14.92-27.13c9.23-20.53,18.9-40.88,29.29-60.85
		c16.23-30.94,37.42-59.1,61.58-84.28c20.06-21.66,42.04-41.53,65.53-59.42c14.3799-11.76,30.46-21.5,47.75-28.34
		c22.52-9.11,47.05-11.89,71.19-11.78c16,0.04,32.12-0.33,47.99,2.11c2.87,0.19,6.01,1.27,8.67-0.4
		c19.79-9.55,40.38-17.43,61.45-23.67C977.64,13.9,992.17,9.58,1007.16,7.66 M870.02,54.23c-20.44-0.55-41.32,4.88-58.04,16.85
		c-7.9,5.67-13.95,14.23-15.18,24.03c-5.47,2.43-11.88,4.5-15.14,9.89c-1.33,5.44,5.2401,7.74,9.05,9.69
		c-4.57,0.15-9.15-0.02-13.72,0.08c-15.67,0.75-31.18,4.77-45.23,11.77c10.34-1.33,21.3-1.61,31.07,2.55
		c12.11,4.63,24.48,9.48,34.61,17.78c-9.64-2.27-19.58-2.87-29.45-2.15c-19.2,0.84-38.29,7.56-53.04,20.03
		c7.61,1.69,15.26,3.87,23.12,3.64c-6.54,0.46-13.82,2.63-16.81,9.07c-3.42,0.07-6.85-0.01-10.26,0.04
		c-11.44,0.32-22.63,5.12-30.82,13.1c8.61,1.04,17.3,0.98,25.93,1.85c20.07,1.91,40,6.91,57.91,16.32
		c-3.54-0.69-7.02-1.62-10.53-2.45c-15.53-3.61-31.77-4.47-47.54-2.05c-1.22,0.38-3.84,0.02-3.51,1.96l1.44-0.91
		c7.28,0.05,14.84,0.92,21.28,4.56c15.91,9.96,32.86,18.23,50.44,24.81c6.77,2.57,13.51,5.32,20.57,7
		c-27.64,3.1-56.09-3.2-80.37-16.64c-15.88-7.68-35.51-11.16-51.92-3.13c-9.25,3.7-18.53,7.3-27.83,10.86
		c10.06-2.76,19.88-6.38,30.02-8.9c4.91-1.04,9.87,0.5,14.73,1.26c15.57,3.06,31.41,10.38,40.17,24.22
		c-5.56-1.52-11.3-2.36-17.0699-2.12c9.79,5.79,19.79,11.25,29.3199,17.48c-15.59-3.3-31.11-7.19-46.16-12.46
		c-13.72-4.25-28.33-4.53-42.51-2.93c3.44,0.87,6.99,1.1,10.49,1.7c31.37,6.86,61.85,18.26,89.4901,34.67
		c-18.2,0.06-36.3701,1.36-54.57,1.31c-17.69,0.72-35.46-0.51-53.11,1.25c-19.8,2-39.34,9.02-54.95,21.53
		c-10.23,8.2-18.79,18.44-25.26,29.83c-21.45,34.42-42.59,69.12-60.63,105.48c18.18-19.43,32.92-41.78,46.69-64.46
		c15.63-24.07,38.36-42.65,62.95-57c12.49-7.86,26.1-13.99,40.38-17.77c17.4399-4.99,35.83-5.81,53.8199-4.23
		c10.86,0.91,21.34,4.12,32.17,5.22c25.45,3.01,51.91,0.9,75.78-8.88c5.35-2.63,11.46-2.73,17.04-4.68
		c-18.54,13.65-36.25,28.44-55.47,41.16c-7.52,3.97-14.96,8.29-23.19,10.67c-9.81,2.63-20.16,0.69-29.44-2.96
		c-8.91-1.62-17.85-3.4-26.91-3.91c-12.5-1.72-25.46-3.59-37.88-0.36c-11.41,2.61-21.72,9.07-29.66,17.59
		c-17.39,18.89-30.28,41.79-37.27,66.51c-6.79,22.13-11.76,44.87-14.15,67.91c-1.39,12.68-1.19,25.45-2.27,38.15
		c-1.61,22.83-5.72,45.38-8.87,68.02c-2.99,20.42-5.47,41.06-11.41,60.89c-5.57,18.1801-15.9,34.57-28.67,48.55
		c-13.86,16.04-31.5,28.02-47.89,41.25c-12.78,10.5-26.65,20.02-36.97,33.15c-11.35,13.82-18.36,30.73-22.18,48.09
		c4.39-8.05,10.06-15.38,16.87-21.53c11.29-12.41,22.94-24.6,36.08-35.09c4.79-3.86,9.94-7.24,14.72-11.11
		c9.39-7.54,18.22-15.75,26.78-24.2c10-10.03,20.24-19.88,29.2-30.87c12.64-15.72,22.52-33.8,27.95-53.27
		c3.06-10.43,4.34-21.25,5.79-31.99c3.01-22.84,4.64-45.87,5.01-68.9c-0.08-23.6,1.62-47.41,7.88-70.26
		c5.55-19.88,11.5-39.65,17.58-59.38c6.53-22.8,19.64-43.81,37.6-59.34c13.4-11.38,31.01-15.4,48-17.76
		c-3.54,1.52-7.19,2.97-10.19,5.44c-17.9,15.23-31.76,35.14-39.77,57.25c-4.98,13.2-8.15,27.03-10.06,41
		c-2.02,12.71-5.84,25.19-6.34,38.12c-1.32,10.37-2.67,20.73-4,31.09c-1.66,13.2599-2.18,26.62-3.36,39.92
		c2.25-3.6,4.79-7.07,8.12-9.76c9.76-8.05,20.96-14.07,32.25-19.66c7.05-2.95,14.84-2.59,22.32-2.37
		c12.4,0.86,24.22,5.04,35.9901,8.77c20.04,6.62,38.16,17.66,55.8199,28.99c5.59,3.89,11.72,7.37,15.88,12.92
		c6.37,8.07,8.62,18.62,8.57,28.72c-22.66-12.21-47.84-18.31-71.24-28.8c-11.39-4.75-22.03-11.22-33.8-15.03
		c-12.26-4.47-25.26-7.04-38.31-7.3799c-12.39-0.73-25.2,1.77-35.66,8.6899c-2.44,30.8701-2.1,61.9-0.58,92.8101
		c0.71,7.34,3.69,14.22,4.86,21.47c2.14,3.44,2.69,7.55,4.06,11.32c7.12,1.3,15.45-0.04,20.5-5.58c-6.51,0.54-13.6,0.8-19.19-3.19
		c-1.77-1.38-5.23-2.92-4.35-5.64c8.15,3.53,17.64,2.59,25.5-1.2599c-2.35,0.43-4.72,0.9-7.1201,0.9
		c-5.43,0.21-10.48-3.03-13.56-7.33c4.32,1.73,8.8701,3.19,13.61,2.82c4.56,0.22,8.5-2.32,12.78-3.41
		c-7.09-3.1-12.24-9.31-15.41-16.22c2.68,2.75,5.9,4.98,9.6,6.1c6.05,2.36,12.62,1.14,18.92,1.62c-6.15-2.56-10.53-8.06-13.34-13.93
		c4.04,2.83,8.54,5.38,13.6,5.54c4.31,0.06,8.71-0.41,12.85,1.18c-5.91-4.47-12.2-9.21-15.01-16.34c3.43,4.52,7.85,9.15,13.86,9.65
		c5.82,0.3,11.64,1.11,17.09,3.29c-3.65-4.79-7.32-10.08-7.89-16.25c4.66,9.61,15.09,16.09,25.81,15.58
		c-2.96-5.46-4.98-11.41-5.52-17.62c1.64,2.63,3.02,5.42,4.89,7.91c3.52,4.82,8.64,8.2,13.95,10.77c-0.52-5.5-0.03-11.05,1.32-16.39
		c2.86,9.54,9.35,17.69,17.54,23.26c0.03-3.77,1.41-7.55,4.63-9.73c-0.43,3.28-1.07,6.9,0.77,9.91c1.27,2.54,3.77,4.05,6.06,5.57
		c0.99-2.82,1.44-5.96,3.43-8.3101c1.73,9.11,7.21,17.2401,14.64,22.7c10.75,8.41,20.3199,19.91,22.58,33.73
		c-9.06-4.34-19.15-6.22-29.16-5.6801c-8.2-0.33-16.54,3.4-20.93,10.4901c-1.17-1.87-2.38-4.43-5-4.2401
		c-5.62-0.02-10.41,4.0601-13.82,8.1801c0.76-4.17-2.84-8.94-7.31-7.84c-4.6,1.76-7.81,5.71-9.82,10.07
		c-0.97-4.38,1.96-7.94,4.78-10.86c-10.0699-0.11-19,5.37-25.81,12.35c-0.33-4.74,2.17-8.98,6.02-11.56
		c-4.32-0.34-8.89-0.85-12.95,1c-3.5,1.29-6.4,3.66-9.23,6.02c2.41-4.85,6.18-8.75,10.03-12.46c-8.85,0.47-17.62,4.02-23.87,10.38
		c0.82-6,4.83-10.92,9.65-14.3c-4.57-0.29-9.27-1.02-13.74,0.35c-6.09,1.61-11.35,5.17-16.28,8.96
		c4.69-7.75,12.15-13.53,20.45-16.97c-8.53,1.52-16.54,5.02-24.3,8.76c0.51-2.58,1.81-4.86,3.76-6.61
		c-4.52,1.35-9.18,0.27-13.27-1.81c2.94,12.98,4.7,26.36,3.38,39.67c-0.39,7.43-2.69,14.59-3.15,22.01
		c-1.41,17.94-2.23,35.95-3.79,53.88c0.77,9.06,1.47,18.14,2.69,27.16c2.67,13.32,5.27,26.65,7.94,39.97
		c2.19,12.24,5.73,24.29,10.9,35.61c9.23,21.39,18.35,42.82,27.59,64.21c3.39,7.61,6.22,15.49,10.43,22.71
		c41.63,76.75,83.09,153.6,124.8,230.3101c5.48,9.33,14.09,16.49,23.64,21.4c16.84,8.36,35.58,11.8899,54.19,13.48
		c12.62,1.23,25.32,0.5299,37.98,0.72c55.36-1.83,108.66-20.4301,158.1-44.35c16.3401-7.7001,31.7101-17.24,48-25.03
		c54.76-27.95,105.78-64.12,147.3601-109.64c4.7-5.3199,9.5599-10.53,13.86-16.1899c6.5499-10.0601,12.84-20.3601,17.6799-31.38
		c3.8301-8.1001,6.6-16.6301,9.6801-25.03c1.14-1.59,1.41-3.6,1.99-5.43c11.33-39.23,22.0699-78.63,33.26-117.9
		c6.64,1.62,10.66,7.94,17.2999,9.5c9.15,2.44,18.37,5.12,27.8601,5.72c9.0699,0.6899,17.8099-2.78,25.3799-7.4901
		c6.5-4.24,11.5801-10.59,14.25-17.89c4.6901-12.53,6.4601-26.04,6.13-39.37c0.01-7.6801,1.26-15.33,0.7401-23.01
		c-0.8401-19.82-2.51-39.6-4.5801-59.33c-6.5599,2.48-13.3099,4.35-20.0599,6.2c-8.0601,2.19-16.4701,4.2-24.86,3.36
		c-8.91-1.99-18.2101-3.84-25.9401-8.95c2.25,2.69,3.59,6.03,5.95,8.65c3,2.71,6.89,4.07,10.41,5.98
		c-8.98,0.47-18.8099-0.94-25.78-7.09c1.4601,4.84,4.15,9.27,7.41,13.11c6.35,6.72,15.04,10.38,23.04,14.69
		c-5.52-0.48-10.89-1.96-16.04-3.94c-5.96-2.17-10.9299-6.26-16.66-8.83c-1.58,6.94,0.39,13.88,1.79,20.66
		c2.09,9.05,9.22,16.33,17.62,19.92c4.23,1.58,8.72,2.32,13.11,3.37c5.35,0.93,10.28,3.31,15.41,5.01
		c-11.36,0.44-22.48-2.92-33.28-6.09c-7.21-1.87-10.59-9.25-13.15-15.54c-3.49-7.58-4.4099-15.93-5.58-24.08
		c-2.1-16.66-1.78-33.59,0.7-50.18c0.9301-7.05,2.77-13.94,3.9501-20.95c0.26-5.3,0.6899-10.64,0.35-15.94
		c-4.16-14.49-12.23-27.9-23.14-38.31c-8.54-8.16-17.28-16.11-25.4399-24.64c4.5699,2.55,9.2799,4.87,14.2,6.69
		c-8.13-10.39-17.75-19.59-28.3-27.5c-7.7999-6.42-15.4199-13.19-21.8999-20.97c0.5699,0.38,1.6899,1.14,2.25,1.52
		c2.9099,0.0099,0.6499-2.75-0.1801-3.76c-5.7-7.34-11.35-14.72-16.97-22.13c-2.22-3.06-5.4501-5.12-8.24-7.59
		c-14.2101-12.08-28.12-24.57-40.9601-38.09c-11.5699-12.6-21.2599-26.91-28.71-42.31c-10.5-20.82-20.6699-41.81-30.9399-62.74
		c-0.4,26.03,5.13,51.64,10.73,76.9c-9.4-29.94-23.66-58.15-40.02-84.86c-9.95-16.24-19.97-32.5-31.51-47.67
		c-13.1899-16.97-27.9399-32.78-44.41-46.6c4.52,7.45,9.7001,14.48,14.2101,21.95c12.4199,19.87,23.5699,40.55,33.1699,61.93
		c4.92,9.56,10.7201,18.65,15.7201,28.17c-16.4401-24.8-32.42-50.26-53.3301-71.62c-17.64-17.07-37.28-32.22-58.67-44.27
		c-0.18,0.41-0.52,1.25-0.7,1.66c2.15,3.43,4.86,6.47,7.3,9.7c14.96,19.6,29.13,39.82,42.4199,60.59
		c9.67,14.72,18.1901,30.19,28.53,44.47c12,17.05,25.4301,33.07,39.8,48.17c12.88,13.64,26.6799,26.47,41.95,37.41
		c-27.9299-8.77-52.25-27.26-70.25-50.14c-24.22-32.53-45.91-66.9-65.85-102.2c-13.44-23.5-30.83-44.91-52.22-61.61
		c-4.31-3.13-8.31-6.99-13.46-8.69c-16.88-5.82-34.58-9.37-52.43-10.01c-17.15-0.17-34.74,0.09-51.16,5.53
		c-4.65,1.24-9.39,2.13-13.92,3.76c0.4-6.59,0.37-13.2,0.26-19.8c-0.38-24.12-6.48-47.82-5.7-72.01
		c-0.65-13.63,2.37-27.81,10.64-38.89c3.23-4.01,5.29-8.91,5.79-14.04c0.95-8.97,3.2-17.87,7.36-25.92
		c3.75-7.54,9.54-13.75,14.32-20.62c10.17-13.9,19.16-28.74,25.75-44.69C884.37,56.09,876.81,54.06,870.02,54.23 M921.2,65
		c-12.73,6.24-24.61,14.27-35.18,23.71c-4.44,4.69-10.02,8.01-14.89,12.19c13.13-8.2,27.63-14.67,43.09-16.69
		c-9.25,8.07-18.36,16.31-26.96,25.08c-11.43,11.05-21.47,24.32-25.39,39.96c5.9-4.9,12.21-9.43,19.27-12.54
		c-5.52,8.62-10.86,17.41-15.16,26.72c9.45-4.33,19.13-8.2,29.02-11.4c-12.2,12.53-24.59,24.92-35.78,38.39
		c-9.67,11.71-17.31,25.07-22.6899,39.27c19.77-9.26,41.56-14.25,63.42-13.95c11.2-0.27,22.52,1.35,33.03,5.33
		c5.69,2,10.88,5.1,16.32,7.67c13.9,6.95,27.09,15.19,40.11,23.63c-5.93-9.72-14.3799-17.56-23.18-24.64
		c-13.29-10.31-28.24-18.5-44.14-24c-13.17-5.59-28.69-6.4-41.9901-0.8c-6.49,2.66-12.0099,7.06-17.43,11.4
		c5.01-10.74,10.65-21.31,17.81-30.79c10.97-14.43,26.62-24.19,42.36-32.66c7.61-3.91,15.33-7.72,23.5099-10.3
		c-11.5-3.59-23.93-5.02-35.7599-2.22c-6.55,1.54-12.3,5.15-17.71,9.01c3.45-5.49,8.5-9.81,13.87-13.35
		c-4.55-0.05-9.11,0.11-13.65-0.22c5.6-4.31,10.82-9.09,16.07-13.81c-4.59,0.11-9.25,0.2-13.69-1.17
		c6.01-5.43,11.61-11.29,17.1-17.25c12.56-13.48,29.49-22.5,47.37-26.56c16.16-3.76,32.8-1.42,49.08,0.07
		c9.74,0.6,19.5499,0.7,29.2899,0.05c-4.37-2.42-8.86-4.6-13.0599-7.29c-15.84-9-34.09-13.4-52.26-13.58
		C955.24,53.6,936.95,56.45,921.2,65 M1210.85,71.89c22.4601,21.53,46.77,41.02,71.3301,60.06
		c-37.2101-18.28-76.88-31-117.1801-40.44c12.4301,9.82,25.5,18.81,38.45,27.93c16.38,11.26,33.12,22.04,48.75,34.36
		c16.03,12.48,31.2001,26.04,45.91,40.06c26.76,25.43,50.33,54.38,68.49,86.59c18.2001,32.71,39.65,63.56,63.37,92.51
		c24.3401,30.92,47.67,62.64,70.28,94.85c13.15,18.32,27.02,36.13,41.6899,53.27c11.53,13.2,22.6901,27.08,36.7401,37.71
		c-5.9301-7.5099-12.27-14.71-18.0901-22.32c-21.87-27.82-41.2799-57.51-58.58-88.37c-20.36-35.62-39.72-71.81-58.12-108.46
		c18.61,15.78,35.1,33.97,50.4299,52.92c12.51,15.78,23.8,32.46,34.8201,49.3c10.6899,16.29,21.35,32.6,31.8099,49.05
		c-2.4399-7.85-5.87-15.34-8.76-23.01c-15.47-38.59-32.9399-76.43-53.4399-112.62c-9.77-17.22-21.1899-33.41-32.4399-49.67
		c-12.7101-18.25-25.7401-36.26-38.9601-54.13c-9.4399-12.52-18.66-25.22-28.6-37.35c-14.4-17.47-30.27-33.73-47.59-48.32
		c-13.76-11.69-28.51-22.12-43.1801-32.62C1276.61,111.24,1244.5699,90.09,1210.85,71.89 M1139.1,122.17
		c3.42,4.16,6.92,8.26,10.27,12.49c9.97,12.09,18.67,25.15,28.48,37.37c13.03,16.24,26.87,31.85,41.73,46.43
		c26.9801,25.88,51.12,54.6,73.27,84.68c10.52,13.86,20.9501,27.8,31.2001,41.87c13.2999,17.92,25.98,36.37,40.98,52.95
		c11.78,13.03,24.0499,25.72,37.5499,36.97c-11.5599-21.03-25.1599-40.88-39.73-59.93c-10.2899-13.31-21.3099-26.04-31.2899-39.59
		c-11.9-15.71-22.8701-32.11-32.9301-49.05c-10.35-18.2-22.11-35.58-34.78-52.24c-11.95-15.58-24.38-30.85-38.15-44.87
		C1200.22,162.91,1170.87,140.4,1139.1,122.17 M971.18,163.63c23.05,4.38,45.62,11.33,66.97,21.08c-20.94-5.55-43.56-6.2-64.29,0.58
		c16.13,2.72,31.68,8.23,46.26,15.58c15.13,3.63,29.37,10.84,41.37,20.74c17.9401,13.61,35.91,27.22,52.8101,42.12
		c14.95,12.32,28.45,26.37,40.2999,41.69c9.79,12.44,17.85,26.11,27.11,38.93c22.8201,32.48,47.98,63.2,72.88,94.09
		c9.8101,12.43,22,22.68,33.7201,33.24c17.59,15.51,35.8899,30.2,54.0099,45.09c12.42,10.08,24.7201,20.3,37.37,30.09
		c-30.2899-26.5-60.24-53.41-89.1-81.47c-13.77-13.58-27.5-27.22-40.15-41.86c-12.33-14-22.23-29.88-33.1399-44.96
		c-10.76-15.92-21.5801-31.8-32.0601-47.91c-12.03-18.62-23-37.9-33.8-57.25c-4.35-7.18-9.12-14.1-13.97-20.94
		c-6.5699-8.76-12.62-17.94-19.99-26.06c-15.26-17.83-33.1899-33.35-53.0599-45.85c-15.1901-8.89-32.11-14.6-49.4301-17.55
		C1000.52,160.69,985.4,159.13,971.18,163.63 M1177.01,290.16c3.55,7.41,8.1799,14.23,12.41,21.26
		c20.2899,33.3,43.47,64.78,68.48,94.67c25.13,30.68,52.11,59.81,80.02,87.97c11.96,12.05,24.22,23.81,37.1,34.88
		c28.74,25.07,60.3199,46.87,93.95,64.86c-3.72-6.04-8.77-11.08-13.48-16.32c-20.33-21.35-42.86-40.47-62.92-62.08
		c-14.12-15.22-28.3099-30.39-43.59-44.45c-14.51-13.12-27.77-27.53-40.64-42.22c-20.61-19.42-41.49-38.54-61.9099-58.15
		c-10.67-10.03-21.67-19.75-31.17-30.93C1201.48,323.99,1189.13,307.11,1177.01,290.16 M1314.99,506.9
		c32.64,32.44,65.22,64.99,98.97,96.29c13.3101,12.69,28.0601,23.76,41.76,35.99c24.4501,27.24,48.78,54.61,72.66,82.36
		c26.95,30.87,50.8,64.46,71.03,100.1c8.2999,15.07,15.75,30.62,22.46,46.47c9.05,21.46,16.04,43.71,22.64,66.03
		c5.36,18.27,10.5599,36.63,14,55.38c4.55,24.6,7.65,49.5,8.5699,74.51c1.11,24.64,1.62,49.2999,1.42,73.96
		c-0.2,16.34,0.36,32.66,0.26,48.99c1.11,34,2.4,67.99,2.99,101.99c0.6801,26.6801,0.34,53.38,1.21,80.0601
		c1.52,47.1799,4.41,94.3099,7.86,141.39c3.1801,19.8099,6.5801,39.6,9.9,59.3999c2.85,16.01,4.8101,32.2101,8.8,48.01
		c4.41,17.92,9.84,35.74,18.2,52.26c5.4601,10.98,12.4501,21.3301,21.39,29.8c-1.39-4.0701-3.83-7.63-5.54-11.53
		c-13.5699-28.65-22.4199-59.6799-24.88-91.3199c-7.5299-77.73-15.0499-155.4601-22.58-233.1901
		c-0.75-9.61-2.38-19.1699-2.12-28.8199c0.33-11.3201,0.4-22.65,0.0601-33.9601c-0.2001-27.7799-0.4-55.5699-2.25-83.2999
		c-2.8401-49.9501-5.5801-99.92-7.92-149.9c-1.12-27.05-3.78-54.02-6.85-80.91c-2.67-24.67-8-48.96-14.4301-72.89
		c-3.9399-14.98-9.24-29.54-14.8199-43.96c-7.47-19.77-14.87-39.57-22.4601-59.3c-8.2599-20.95-18.5499-41.01-29.37-60.72
		c18.8201,19.48,35.7201,40.7,53.3201,61.2599c-4.1801-10.0699-9.59-19.59-14.3-29.42c-18.88-36.34-38.22-72.87-64.11-104.83
		c-12.62-15.94-25.78-31.5-40.14-45.92c-13.1899-12.82-26.7899-25.29-41.63-36.18c25.62,30.92,49.78,63.08,72.89,95.91
		c-27.62-27.74-55.75-55.35-87.76-78.06c-8.6599-6.27-18.21-11.13-27.1599-16.94C1394.59,568.77,1355.1,537.34,1314.99,506.9
		 M532.87,538.18c-17.37,31.46-35.67,62.4-54.88,92.78c-11.43,18.64-22.66,37.4-34.11,56.04c-10.36,16.53-21.82,32.42-34.76,47.04
		c-10.25,11.2-19.67,23.15-28.45,35.54c-21.15,30.79-40.98,62.46-61.27,93.82c-11.5,17.81-23.94,35-34.89,53.17
		c-16.77,26.4-31.62,54.05-43.82,82.86c-10,24.84-17.84,50.5099-24.75,76.3701c-4.13,15.0199-5.32,30.6599-5.46,46.1899
		c-0.29,26.48,2.15,52.97,6.73,79.04c1.74,9.74,4.9,19.22,9.28,28.09c-3.78,25.45-4.38,51.3199-2.23,76.96
		c1.82,25.54,6.42,50.9,14.09,75.3501c5.95,18.63,12.31,37.2999,21.47,54.63c-7.8-21.0601-13.73-42.8201-17.51-64.9701
		c-4.28-24.8099-4.58-50.21-1.67-75.1899c2.37-22.78,6.67-45.38,13.07-67.38c11.21-37,25.28-73.24,43.39-107.4401
		c11.67-23.2999,25.79-45.4199,42.55-65.39c15.09-17.09,29.57-34.7299,43.02-53.14c16.54-22.06,30.64-45.8,44.16-69.8
		c6.98-12.88,14.24-25.66,20.32-38.99c-8.91,13.36-18,26.66-28.43,38.91c-9.35,11.07-18.34,22.44-26.99,34.07
		c-13.4,17.74-25.36,36.51-38.5,54.43c-13.68,18.52-27.98,36.58-43.05,53.98c-25.89,28.7-49.15,60.1-65.9,95.0599
		c-7.75,17.1901-14.2,35.16-16.95,53.88c-6.78-21.3099-6.91-44.36-2.99-66.25c4.65-23.5,10.69-46.7,16.8-69.85
		c3.28-10.61,5.65-21.48,9.09-32.04c4.61-15.0499,9.81-29.8999,15.43-44.6c10.95-28.79,22.81-57.23,35.5-85.3
		c8.38-18.14,16.8-36.36,27.67-53.18c10.94-17.7,23.88-34.05,36.02-50.92c22.5-30.4,44.48-61.19,64.96-92.98
		c21.07-34.09,42.6-67.9,62.68-102.59c9.98-16.9,18.64-34.56,26.19-52.67C523.7,561.98,527.25,549.66,532.87,538.18 M415.77,651.73
		c-12.34,16.47-25.6,32.26-39.64,47.31c-24.37,25.71-44.49,55.06-62.77,85.3c-10.25,17.31-20.1,34.97-27.28,53.81
		c-7.74,19.3199-12.02,39.74-17.14,59.85c-3.87,16.42-8.69,32.6-12.7,48.98c8.68-29.88,17.63-59.84,30.47-88.25
		c21.74-43.54,48.03-84.78,77.89-123.2c8.31-10.6201,16.41-21.41,25.36-31.5c10.39-13.04,21.31-25.69,30.61-39.55
		c8.89-12.8,16.62-26.36,23.96-40.09c8.16-15.19,16.5-30.29,24.49-45.56C450.63,602.66,433.76,627.61,415.77,651.73 M666.17,665.92
		c-6.99,3.25-13.08,8.35-17.53,14.64c6.32,4.83,12.88,9.39,19.95,13.07c11.75,6.36,25.24,9.55,38.59,9.1
		c-4.64-3.62-9.24-7.46-12.55-12.39c-4.47-6.4901-6.3-14.53-5.87-22.33c0.04-4.06,1.93-7.74,2.72-11.65
		C682.6,658.21,674.15,661.67,666.17,665.92 M1422.51,689.5c4.02,4.63,8.97,8.34,13.1799,12.81
		c12.3101,12,22.91,25.76,31.1101,40.88c17.09,25.02,31.75,51.77,43.0399,79.91c3.05,7.23,4.9,15.04,9.5901,21.4901
		c16.2599,27.83,37.36,52.43,53.5699,80.29c9.78,16.46,17.4,34.04,25.9399,51.13c-8.8199-14.65-17.8199-29.21-27.83-43.07
		c-11.3099-15.73-22.83-31.44-36.33-45.38c4.75,13.18,10.02,26.17,14.9,39.3c-11.16-18.85-21.92-37.94-32.9401-56.86
		c-1.71-2.55-4.38-4.2-6.61-6.21c-10.3101-8.87-21.83-16.38-30.71-26.8c9.87,13.52,19.08,27.52,27.4399,42.03
		c9.53,16.8,19.12,34.19,22.1,53.54c-6.5599-16.86-18.21-31.28-31.2799-43.55c5.38,19.51,11.24,38.91,18.1799,57.93
		c3.49,10.25,8.5,20.24,8.91,31.27C1515.83,955.5,1504.08,933.93,1490,914c2.99,8.62,6.02,17.24,9.4399,25.71
		c5.15,8.44,9.0801,17.54,13.41,26.42c5.26,11.14,10.4,22.33,15.25,33.66c3.04,6.96,4.88,14.35,6.53,21.75
		c3.05-12.43,1.27-25.5099-2.77-37.49c-6.67-17.58-12.3099-35.57-16.35-53.94c8.53,3.51,16.01,9.52,21.25,17.12
		c3.8199,5.07,6.02,11.05,8.78,16.71c0.6799-5.77-0.5701-11.52-2.01-17.07c-5.26-18.52-14.16-35.69-22.5601-52.91
		c13.11,20.4,27.77,40.19,46.5,55.82c22.99,20.4399,44.42,42.62,64.0901,66.28c-5.0901-12.48-10.53-24.84-16.9-36.72
		c-19.77-36.06-39.5901-72.09-60.17-107.7c-17.86-32.55-38.37-63.65-61.55-92.66c11.13,12.25,21.8101,24.92,32.41,37.64
		c24.75,30.63,49.0601,61.82,69,95.86c7.9501,13.34,15.53,26.92,22.38,40.86c5.37,11.64,8.86,24.22,9.74,37.03
		c2.65-27.48-3.96-56.54-21.3199-78.42c-8.77-11.38-17.11-23.1-25.01-35.1c-9.9-14.89-18.48-30.6-28.42-45.45
		c-10.75-16.06-22.2899-31.6-34.87-46.27c-14-16.31-28.2999-32.34-43.0699-47.94c-24.78-26.1-50.1901-51.59-74.7101-77.93
		C1406.33,669.73,1414,679.98,1422.51,689.5 M730.15,662.14c-2.69,1.98-3.79,5.88-2.27,8.91c2.28,4.63,10.4,3.87,11.73-1.15
		c1.16-2.61-0.45-5.41-2.2-7.31C735.22,661.39,732.49,661.5,730.15,662.14 M759.93,683.78c-2.45,6.8199-7.39,12.33-12.98,16.79
		c9.4-0.25,18.79-1.21,28.2-1.05c1.79-3.51,4.14-7.34,3.77-11.36c-4.37-6.06-10.44-10.53-16.32-15.0099
		C761.81,676.71,761.23,680.35,759.93,683.78 M598.81,847.8c-8.35,13.08-18.04,25.25-27.99,37.13
		c-7.41,8.89-15.53,17.24-24.83,24.16c-2.58,1.73-4.14,4.48-5.9,6.97c-15.2,21.49-30.33,43.03-44.93,64.93
		c-23.5,35.01-47.04,70.09-67.1,107.22c-20.1,38.2001-31.93,80.9401-33.1,124.13c2.87-11.5299,5.31-23.1799,8.87-34.5299
		c6.65-22.3701,15.52-44.05,26.06-64.8601c11.66-22.9299,24.86-45.59,43.43-63.6699c7.48-7.92,14.07-16.63,20.74-25.23
		c27.2-36.0101,53.18-72.92,79.16-109.8101c8.86-12.52,17.88-24.94,26.48-37.63c5.84-16.44,9.43-33.65,11.37-50.98
		C607.02,833.04,603.69,840.86,598.81,847.8 M641.13,923.81c3.16,17.75,11.08,34.1,17.19,50.93c4.14,11.58,8.06,23.24,11.22,35.13
		c10.68,40.6801,15.7401,82.53,21.38,124.13c3.74,25.98,8.42,51.83,11.05,77.96c2.73,26.91,5.16,53.89,5.64,80.9501
		c0.72,23.62,0.25,47.25,0.03,70.88c-0.19,12.76-0.95,25.58,0.88,38.2799c0.5-3.6699,0.79-7.35,1.02-11.0199
		c1.73-26.67,4.68-53.26,5.79-79.9701c0.98-24.6799,2.97-49.39,1.88-74.1c-0.7401-20.0599-2.9901-40.04-6.41-59.8099
		c-4.08-24.0801-8.47-48.11-12.98-72.11c-2.72-14.3201-6.17-28.55-7.29-43.1101c-0.23-3.4199-1.1-6.74-1.92-10.0299
		c-3.41-14.27-6.69-28.5601-10.17-42.8c-2.33-6.63-5.57-12.9-8.26-19.38C660.46,967.79,651.01,945.7,641.13,923.81 M1692.79,944.69
		c6.6899,32.72,13.45,65.43,19.9399,98.2c4.34,23.0599,9.1901,46.03,12.52,69.27c3.22,27.84,4.9301,55.85,5.51,83.87
		c-0.15,24.03,0.35,48.0599,1.9299,72.0499c1.3601,24.9601,3.16,49.89,3.9501,74.88c0.63,21.36,1.48,42.7101,1.79,64.0701
		c0.09,21.3099,0.48,42.61,1.0499,63.9099c0.25,22.75,0.9401,45.5901,4.53,68.1001c2.7,16.77,6.0699,33.49,11.14,49.73
		c9.5399,29.1899,21.3199,57.58,32.63,86.12c-5.42-21.35-12.3101-42.33-17.86-63.64c-4.0701-30.27-7.53-60.64-12.67-90.75
		c-3.34-20.34-5.87-40.83-7.36-61.39c-1.4401-19.33-1.4301-38.72-2.5701-58.0599c-1.2899-24.37-3.12-48.7001-5.59-72.9801
		c-2.36-23.96-3.6-48.0199-3.87-72.09c0-74.25-6.6899-148.8199-24.23-221.09c-5.37-23.57-10.74-47.15-16.13-70.72
		c-1.65-8.09-4.04-16.03-5.1899-24.21C1692.41,941.53,1692.51,943.1,1692.79,944.69 M1419.1801,958.9
		c-1.79,22.75-3.7301,45.5099-6.54,68.1699c-4.74,42.91-13.03,85.41-24.55,127.02c-10.23,36.87-26.2799,71.86-44.6699,105.3101
		c-9.91,18.96-18.2101,38.84-23.39,59.64c-2.76,11.33-6.73,22.51-7.77,34.1799c3.0699-8.4,6.79-16.5399,10.14-24.8199
		c7.7-19.27,17.5699-37.55,26.77-56.12c8.24-16.67,15.96-33.5901,23.6599-50.51c8.36-18.87,16.9301-37.66,23.91-57.09
		c8.28-22.79,15.12-46.12,20.11-69.8501C1426.6899,1050.29,1428.5,1003.69,1419.1801,958.9 M544.64,991.55
		c-12,15.69-24.83,30.74-36.02,47.04c-11.3,16.64-22.68,33.26-34.82,49.3201c-10.14,13.77-21.26,26.7799-31.52,40.45
		c-10.32,14.15-20.88,28.5701-26.51,45.34c-3.88,11.1001-5.36,22.8401-8.4,34.17c-2.47,11.23-6,22.21-8.23,33.49
		c4.55-10.96,8.77-22.0499,13.54-32.92c6.52-15.8899,14.73-31.11,24.61-45.1699c9.55-14.3301,19.8-28.17,30.38-41.75
		c12.4-16.2001,23.64-33.26,34.17-50.74c9.46-15.6,20.73-29.98,30.5-45.36c12.55-19.36,24.59-39.14,34.8199-59.8201
		C558.5,973.16,551.68,982.53,544.64,991.55 M369.74,1036.62c-13.22,21.5601-26.31,43.21-38.54,65.36
		c-9.06,16.77-19.22,33.03-26.23,50.8201c-8.48,20.6499-12.95,42.86-13.85,65.1399c-0.48,22.6901,0.29,45.4401,2.87,68
		c2.38,22.39,7.08,44.4301,10.61,66.66c3.83,23.37,7.43,46.78,11.04,70.1901c4.45,28.9399,3.12,58.6-2.65,87.25
		c-1.89,8.99-3.61,18.13-7.48,26.5399c-2.93,7.2101-7.09,13.8401-11.91,19.9301c-11.18,13.7-22.31,27.52-31.84,42.4399
		c20.93-14.85,38.19-34.23,53.52-54.6599c4.35-5.54,7.96-11.62,10.94-18c8.79-18.4301,11.27-39.0801,12.02-59.27
		c-0.38-8.01,0.47-16.04-0.5-24.01c-1.3-19.61-6.11-38.71-9.92-57.9301c-4.59-21.96-8.9-43.98-13.47-65.95
		c-5.36-26.97-6.56-54.76-3.41-82.09c4.39-40.8101,16.42-80.67,34.64-117.42c21.43-42.1801,38.55-86.46,52.34-131.69
		C388.72,1004.27,379.63,1020.68,369.74,1036.62 M1569.27,1011.96c3.46,23.67,7.58,47.2399,11.39,70.8599
		c4.09,26.3601,7.72,52.78,11.37,79.2001c3.4399,24.2999,5.8199,48.72,8.2,73.14c2.77,28.9199,3.78,57.96,6.3101,86.9
		c2.1499,24.34,3.1699,48.8799,7.95,72.8999c1.25,7.1901,3.22,14.23,4.47,21.41c-11.59-24.86-20.1499-51.33-23.6899-78.59
		c-3.1801-27.3-5.73-54.66-8.9401-81.9601c-2.59-22.1799-3.7899-44.5099-3.5699-66.83c0.13-12.96-0.99-25.89-1.01-38.83l-0.47-0.03
		c-1.11,12.64-2.04,25.29-3.3301,37.91c-2.51,26.6-1.36,53.3199-0.2899,79.96c1.5499,41.91,6.0299,84.3,20.48,123.9301
		c7.63,19.97,18.79,38.4099,31.5,55.5299c8.59,11.0901,17.01,22.91,20.61,36.6801c3.53,15.26,6.9,30.5699,10.48,45.83
		c-2.37-12.95-4.98-25.86-7.48-38.78c-1.72-8.37-3.15-16.8999-6.67-24.74c-3.5299-8.6399-9.21-16.11-13.9199-24.08
		c-1.42-4.6-1.39-9.52-2.2201-14.24c-3.3899-23.28-5.33-46.73-8-70.09c-5.59-48.9301-9.6899-98.01-15.6299-146.9
		c-2.66-25.13-6.6001-50.1-9.8601-75.15c-2.8099-19.96-4.6699-40.0599-8.51-59.86
		C1584.03,1054.21,1577.6899,1032.67,1569.27,1011.96 M639.32,1029.9399c4.09,26.39,7.99,52.8101,12.09,79.1901
		c7.4301,47.34,13.53,94.91,16.72,142.73c1.64,26.39,3.24,52.79,4.93,79.1901c3.41,52.9099,7.6,105.84,7.45,158.8999
		c-0.48,24.51-0.43,49.03-1.3,73.54c4.28-13.22,6.78-26.9399,9.15-40.61c3.49-19.77,4.95-39.84,5.41-59.89
		c1-30.35,0.47-60.74-1.27-91.0599c-3.13-45.41-7.21-90.77-13.3-135.88c-3.74-29.3101-7.34-58.63-10.96-87.9501
		c-2.46-21.72-6.3-43.28-11.56-64.49C651.88,1065.4301,646.75,1047.23,639.32,1029.9399 M1491.41,1069.86
		c-5.6901,28.65-13.87,56.79-24.29,84.0701c-8.76,21.3899-16.35,43.23-23.6899,65.1499c-5.9501,17.3401-11.4301,34.9-14.88,52.9301
		c-5.2001,25.65-6.55,51.87-6.8101,77.97c0,23.39,1.97,46.75,5.42,69.88c3.0599,22.8201,9,45.23,17.5299,66.62
		c3.5801,8.75,6.7401,17.84,12.42,25.52c11.16,15.59,23.98,29.88,36.67,44.22c11.97,13.0601,23.7999,26.26,36.28,38.8301
		c-25-31.3101-49.4601-63.4-68.04-99.04c-8.3-16.27-15.9401-33.3101-18.2001-51.6c-2.12-22.4601-4-44.9401-5.2599-67.4601
		c-0.9601-27.8899,3.1799-55.63,7.7699-83.0499c3.37-20.7001,8.5901-41.01,13.37-61.4c9.4601-42.42,18.6801-84.9,26.79-127.59
		c4.47-24.0601,10.1901-47.9,14.3-72.01C1497.86,1045.27,1494.3101,1057.49,1491.41,1069.86 M509.56,1103.61
		c-19.68,33.72-35.69,69.38-52.37,104.63c-10.48,22.53-18.03,46.4-22.32,70.88c-3.86,23.09-6.43,46.4-7.68,69.78
		c-2.99,55.66-1.2,111.48,3.3,167.02c1.87,23.8199,4.95,47.5299,8.64,71.13c3.81,24.49,6.59,49.13,9.01,73.7999
		c1.63,18.9601,4.05,38.09,1.49,57.09c-2.52,20.54-9.85,40.65-22.42,57.2001c13.9-12.0601,26.02-26.5,33.77-43.29
		c7.69-15.71,10.46-33.5399,8.89-50.89c-2.58-36.88-7.57-73.5599-13.16-110.09c-3.61-24.53-6.15-49.21-7.76-73.95
		c-1.99-28.5801-3.34-57.2101-3.44-85.86c-0.25-45.88,1.63-91.9901,9.85-137.2201c3.98-21.15,10.15-41.84,17.54-62.0399
		c15.17-40.0801,32.94-79.15,52.88-117.0701c8.75-19.03,17.29-38.1799,25.17-57.58C537.13,1059.28,522.63,1081.01,509.56,1103.61
		 M1554.11,1105.95c-1.61,16.6901-3.2999,33.37-5.14,50.03c-2.51,21.4301-4.63,42.9301-8.2899,64.2001
		c-2.6001,11.3999-4.14,23.0299-4.55,34.73c-0.5699,22.46,0.09,45.12,4.75,67.1799c4.24,22.0901,12.4399,43.13,21.1,63.8
		c7.05,16.1,14.6,31.98,22.4501,47.7c1.83,3.1901,3.0099,6.9301,5.9199,9.37c-1.35-8.23-4.6799-15.96-7.23-23.85
		c-7.96-21.9-15.88-43.87-21.53-66.5c-4.4099-17.1799-7.63-34.9-6.4099-52.7c0.25-27.65,1.86-55.27,1.5699-82.92
		c-0.03-27.36-0.66-54.71-0.88-82.0699c0.03-13.3401-0.79-26.7101-0.25-40.03C1554.7,1098.51,1554.41,1102.24,1554.11,1105.95
		 M383.78,1127.6899c-15.07,42.4901-28.13,85.78-37.33,129.9401c-4.93,22.88-8.01,46.1-10.47,69.35
		c-2.28,21.62-3.19,43.42-1.88,65.14c0.85,16.99,3.48,33.84,4.23,50.85c1.04,23.9601,1.55,48.02-0.24,71.97
		c-3.04,36.26-18.95,72.3701-47.36,95.8c-13.81,11.59-31.08,18.38-48.83,20.91c33.15,0.47,65.15-15.4501,87.27-39.6801
		c14.73-16.48,24.25-37.24,28.54-58.84c3.49-18.15,4.1-36.7,4.55-55.12c0.38-23.7-1.63-47.34-3.59-70.9301
		c-2.1-27.2999-2.28-54.72-1.65-82.08c0.92-30.22,3.66-60.4399,9.26-90.17c3.7-20.14,6.98-40.36,11.43-60.35
		c5.57-24.86,11.02-49.75,17.09-74.48C390.7,1109.05,387.24,1118.37,383.78,1127.6899 M638.23,1152.46
		c-3.52,29.2001-7.4,58.36-11.22,87.52c-2.19,19.74-4.64,39.4501-7.34,59.13c-3.25,27.53-6.5,55.0601-9.41,82.63
		c-4.6,48.28-13.7,96.26-28.85,142.38c-12.54,36.12-26.25,71.84-41.29,107c-7.26,16.88-16.16,32.97-24.96,49.0699
		c-28.7,51.91-62.37,100.8-94.21,150.77c15.15-18.8999,29.69-38.2999,44.36-57.58c21.76-28.52,42.55-57.79,62.13-87.85
		c11.83-18.41,22.1-37.75,31.71-57.4c4.23-8.48,7.33-17.46,10.69-26.3101c7.0699-19.6699,14.27-39.2799,21.03-59.0599
		c7-21.02,11.55-42.74,14.96-64.6c4.77-28.41,10.01-56.75,14.41-85.23c3.07-21.55,5.25-43.2101,7.08-64.9
		c2.37-27.16,6.94-54.05,10.13-81.11c6.06-48.0601,9.58-96.61,7.09-145.04C642.99,1118.8,640.28,1135.59,638.23,1152.46
		 M732.33,1115.98c1.37,8.99,1.64,18.16,3.71,27.0601c1.67,9.3099,5.85,17.84,9.06,26.6599c5.1801,13.39,10.06,26.9,14.73,40.4801
		c6.87,20.3099,14.17,40.47,20.53,60.9399c6.77,21.16,12.02,42.75,18.36,64.04c4.39,15.64,10.4901,30.8199,13.51,46.84
		c5.66,28.1,3.36,57.12-1.58,85.15c-2.64,15.46-8.88,31.11-21.16,41.4199c-5.94,5.39-13.64,8-20.4,12.1101
		c10.19-2.39,20.34-5.7101,29.15-11.4801c4.53-3,8.96-6.47,11.82-11.1699c3.3-6.04,7.04-11.8401,9.83-18.15
		c7.84-17.5,11.53-36.8101,11.07-55.96c-1.72-25.6001-6.34-50.92-12.36-75.8301c-4.11-15.96-8.56-31.88-14.75-47.1599
		C780.01,1239.28,756.14,1177.64,732.33,1115.98 M461.49,1160.47c-8.59,11.9301-16.96,24.0901-23.75,37.16
		c-9.26,17.37-16.2,35.9-21.34,54.87c-7.26,25.14-12.58,50.8-16.7,76.63c-3.34,20.42-5.51,41.14-4.49,61.86
		c1,23.37,5.61,46.42,11.32,69.0601c2.46-21.5701,2.1-43.3401,2.28-65.02c0.65-23.6901,5.17-47.03,9.92-70.1801
		c4.82-22.84,11.46-45.26,18.91-67.37c13.59-40.22,26.33-80.75,40.46-120.79C472.36,1144.47,467.09,1152.58,461.49,1160.47
		 M499.56,1193.95c-6.48,25.65-11.82,51.67-14.45,78.03c-2.33,22.98-2.26,46.16-0.43,69.17c1.72,24.2899,3.68,48.5499,5.91,72.7899
		c2.37,26.9901,5.97,53.91,6.42,81.04c0.9,25.0601-0.62,50.13-2.26,75.14c-1.24,20.3199-4.72,40.5699-11.16,59.92
		c9.5-10.55,15.28-24.05,18.04-37.87c2.68-15.4301,4.66-30.9701,6.18-46.54c2.26-21.15,2.26-42.61-1.03-63.66
		c-4.27-28.73-6.57-57.7-10-86.53c-5.7-44.2599-5.12-89.1899,0.21-133.45c2.82-27.14,7.48-54.04,10.58-81.14
		c1.02-9.41,2.44-18.8099,5.06-27.9199C507.32,1166.27,503.34,1180.11,499.56,1193.95 M597.71,1202.12
		c-14.62,41.76-29.93,83.78-35.8,127.85c-3.21,25.2001-3.55,50.6801-2.9,76.04c0.36,27.95-1.36,56.0699-7.49,83.4
		c-4.01,17.02-9.26,33.71-13.96,50.5499c-7.38,25.4401-15.02,50.8-22.49,76.2201c-2.18,7.99-5.19,15.7699-6.86,23.8999
		c13.58-33.83,28.35-67.22,40.47-101.63c7.19-19.95,11.63-40.75,15.74-61.51c9.07-46.3799,12.18-93.7599,11.59-140.96
		C577.94,1290.6801,587.93,1246.24,597.71,1202.12 M1356.9301,1366.95c-6.92,26.03-10.75,53.17-8.5901,80.1101
		c1.5,16.1,4.4501,32.1,9.0801,47.6c6.4399,21.45,17.1899,41.4399,30.45,59.4199c18.28,27.3401,41.15,52.0901,68.98,69.87
		c-21.59-22.2699-41.91-45.86-59.4-71.5199c-20.61-28.3401-33.47-62.39-35.7699-97.42c-2.2201-23.36-0.7201-47.0601,4.71-69.9
		c5.41-21.72,10.9399-43.45,18.09-64.6799c7.11-21.5601,15.48-42.6901,24.42-63.55
		C1384.74,1289.73,1365.92,1327.01,1356.9301,1366.95 M760.46,1280.92c0.07,4.6799-0.38,9.35-0.97,14
		c-3.72,38.7-7.39,77.4199-12.13,116.01c-2.67,21.59-5.2,43.22-8.9,64.6599c-7.59,40.03-21.76,78.98-43.12,113.75
		c-12.06,19.38-22.53,39.79-30.84,61.0601c-6.74,17.5399-12.81,35.47-16.46,53.9299c5.27-10.2799,10.96-20.34,17.23-30.0399
		c9.04-13.67,19.38-26.4301,30.02-38.88c24.43-29.86,40.92-66.24,46.67-104.4301c4.25-27.52,7.71-55.1799,9.63-82.96
		c3.73-52.27,5.42-104.67,8.84-156.96C760.77,1287.6801,760.76,1284.28,760.46,1280.92 M1756.45,1282.91
		c-0.48,6.4199,0.63,12.7999,1.04,19.2c3.86,42.64,7.47,85.33,12.88,127.8101c4.97,36.37,14.16,72.1499,27.2,106.46
		c9.8501,25.61,23.8401,49.58,41.2101,70.8199c15.87,19.87,37.9099,34.8601,62.38,41.8401c-9.85-5.89-18.9-13.0901-26.87-21.3401
		c-18.3301-18.5499-31.4601-41.5599-41.52-65.46c-11.5601-26.25-22.9301-52.5699-34.3301-78.87
		c-11.3199-26.58-20.37-54.13-26.61-82.34c-4.11-23.17-6.98-46.53-9.97-69.86C1760.03,1315.09,1757.54,1299.0601,1756.45,1282.91
		 M377.99,1318.97c-5.91,20.9-10.9,42.0901-14.17,63.5801c-3.58,23.6599-3.43,47.87,0.72,71.45c4.14,21.71,6.16,43.83,5.96,65.9301
		c-0.56,24.7799-2.63,49.5599-6.98,73.98c-3.42,18.46-11.24,36-22.61,50.9399c11.55-12.78,21.39-27.0399,30.08-41.89
		c3.59-6.6599,8.33-13.12,8.63-20.97c5.22,8.3201,6.39,18.4401,5.34,28.05c5.19-6.5701,7.64-14.67,10.67-22.3301
		c5.33,24.0701,6.16,49.23,1.56,73.48c-2.24,11.3501-6.82,22.0701-12.41,32.16c9.61-8.1699,16.79-18.78,22.96-29.6799
		c3.61-6.14,6.24-12.8,9.82-18.9701c4.29,21.3401,2.42,43.4801-3.25,64.37c9.49-9.5399,15.16-22.5499,16.41-35.8899
		c1.17-9.9401-0.19-19.91-1.29-29.78c-2.99-22.78-7.85-45.4501-16.03-66.9601c-9.53-31.3099-17.76-63.0699-23.18-95.37
		c-8.42-49.1899-12.3-99.24-10.21-149.13c1.67-12.6499,3.57-25.2899,5.7-37.8799C382.56,1302.17,380.32,1310.59,377.99,1318.97
		 M1349.9301,1340.9301c-9.6801,16.36-19.4601,32.6499-29.0601,49.0499c-9.4,16.35-15.09,34.62-18.11,53.1801
		c-3.73,22.4299-4.21,45.37-1.53,67.96c-7.5,5.91-15.09,11.72-23.04,17c-15.61,10.6801-32.5299,19.1901-49.1299,28.17
		c-1.75,10.88-4.4401,21.6-5.8301,32.5399c13.9401-10.9199,27.85-21.87,41.5601-33.0699c14.08-11.61,26.14-25.4401,36.97-40.08
		c2.67,24.9099,7.3,49.5699,11.02,74.34c3.34,23.0699,8.46,45.91,16.08,67.95c2.21,6.0701,3.9501,12.3201,6.77,18.15
		c4.84,10.34,11.55,19.83,19.8099,27.72c-15.95,33.52-32.24,66.87-48.47,100.25c12.1901-13.9199,23.99-28.1899,36.1901-42.1
		c-2.9301,5.4401-6.15,10.73-8.99,16.24c-11.53,23.7001-23.29,47.3-35.1001,70.86c-7.2899,14.5701-12.72,30.04-16.2799,45.9401
		c-3.8301,16.1899-5.3401,32.85-9.66,48.95c8.88-17.37,17.09-35.0699,24.47-53.12c7.2101-17.75,15.87-34.9299,26.1-51.13
		c7.76-12.01,15.41-24.09,22.4701-36.53c14.85-25.58,27.4299-52.38,40.46-78.8999c16.7,7.8899,36.39,9.9199,54.14,4.5199
		c13.65-4.75,27.01-10.3899,40.15-16.3899c-9.0701,2.6399-18.5801,3-27.9601,2.8199c-10.1,0.3-20.13-1.11-30.1599-1.91
		c-9.78-1-19-4.8099-27.27-9.98c5.58-23.41,8.12-47.41,10.02-71.35c0.8099-9.37,0.86-18.8,2.1899-28.12
		c-4.35,10.97-8.6899,21.95-13.04,32.9299c-5.9099,15.1101-13.5299,29.5-22.25,43.1801c-9.3999-11.64-16.6899-24.84-23.1899-38.26
		c-9.04-19.74-16.12-40.41-20.23-61.74c-2.0901-9.02-2.8-18.26-4.49-27.3199c-1.5-21.8601-1.74-43.92,1.38-65.67
		c1.7799-16.17,5.9199-32.04,12.0599-47.09c0.15-5.79-0.1799-11.63-0.04-17.4301c-10.86,19.55-19.0499,40.66-23.34,62.64
		c-1.86,8.27-2.5499,16.73-4.15,25.04c-0.0499-24.27,1.7001-48.8301,8.7301-72.1801c4.24-14.73,10.4199-29.05,19.5199-41.45
		c2.04-2.4401,1.9401-5.74,2.4801-8.6801c1.9399-12.84,4.9399-25.52,8.8899-37.88c2.2201-7.47,5.4501-14.58,7.8601-21.97
		C1354.9301,1332.1,1352.61,1336.63,1349.9301,1340.9301 M1503.27,1334.96c4.9299,30.63,15.38,60.14,28.73,88.0601
		c7.88,16.98,17.4,33.11,26.61,49.38c26.63,47,53.34,93.95,79.92,140.98c11.71,26.24,23.5699,52.42,35.4299,78.6
		c-9.25-13.13-19.5499-25.49-30.62-37.11c-0.7,10.73-1.15,21.59,0.15,32.29c-23.3199-27.7001-45.66-56.23-68.5699-84.27
		c11.6799,25.14,23.5699,50.22,34.1599,75.86c4.86,11.78,8.9,23.88,13.4601,35.79c6.6,17.2999,13.2799,34.58,20.2,51.77
		c10.64,25.7699,29.34,47.83,52.24,63.59c-10.13-18.6-20.09-37.37-28.0699-57.02c12.24,11.8099,25.12,23.17,39.6699,32.08
		c-5.84-14.88-15.6699-27.6599-24.7999-40.61c-9.2001-13.74-11.7101-30.96-9.6-47.13c4.13,6.3301,8.25,12.6801,13.0399,18.55
		c15.38,19.09,34.8401,34.58,55.75,47.22c6.99,4.39,14.72,7.66,20.99,13.16c-8.22-13.36-16.72-26.54-25.0299-39.8301
		c-29.76-47.33-58.0701-95.58-84.41-144.9099c-15.23-29.1801-33.84-56.4301-49.38-85.4301c-7.34-13.4-14.6801-26.7999-22.02-40.1899
		c-8.55-15.1001-16.1801-30.74-25.62-45.3101C1534.8101,1407.05,1517.21,1371.72,1503.27,1334.96 M1405.12,1446.05
		c3.77,23.88,7.76,47.76,13.54,71.24c4.45,17.84,9.25,35.6799,16.5599,52.59c7.4501,16.4301,17.02,31.8099,27.3401,46.58
		c19.1399,26.78,41.25,51.3,64.4099,74.64c8.92,8.3201,17.29,17.1901,25.7001,26.02c-3.3101-6.3-6.7001-12.55-9.8201-18.9399
		c-7.4199-14.04-13.64-28.6801-21.3199-42.5701c-15.64-28.83-33.9301-56.1799-53.88-82.1899
		c-16.5601-23.4501-28.73-49.63-40.1801-75.8501c-8.22-19.35-16.1699-38.83-23.1899-58.6399
		C1404.46,1441.3,1404.71,1443.6899,1405.12,1446.05 M1180.36,1585.4399c-12.8099,14.9901-22.22,32.8-27.83,51.6801
		c17.02-13.39,36.02-24.38,56.4299-31.7c-0.97-14.9701-1.5-29.9601-2.01-44.9501
		C1197.33,1567.9301,1188.1899,1576.08,1180.36,1585.4399 M814.48,1645.39c-14.65,13.4299-29.9,26.1799-45.24,38.8099
		c-12.71,10.67-26.47,20.0901-41.07,27.9801c-8.45,4.6899-17.39,8.4099-25.97,12.85c-9.44,4.75-18.61,10.03-27.56,15.64
		c-12.66,8-25.18,16.45-35.76,27.14c-14.1,14.0299-24.58,31.5-31.1,50.25c-6.71,18.1499-8.53,37.85-6.65,57.0399
		c0.69,6.13,0.21,12.3201,0.35,18.49c1.84-9.12,2.55-18.4299,4.48-27.5299c3.21-18.63,10.91-36.28,21.21-52.05
		c8.5-13.09,19.63-24.14,30.94-34.77c13.82-12.99,28.51-25.03,43.93-36.0599c16.44-11.4701,32.45-23.5701,47.93-36.29
		c28.03-22.6801,53.58-48.1901,78.73-73.96C823.68,1636.75,819.26,1641.28,814.48,1645.39 M1311.9399,1642.51
		c-10.7,6.3-21.7,12.11-32.8799,17.51c-16.15,7.75-31.29,17.38-46.16,27.3099c3.6,9.87,8.0499,19.4801,13.85,28.27
		c10.15-9.22,19.28-19.53,27.41-30.5699C1285.72,1669.98,1298.4301,1655.83,1311.9399,1642.51 M1149.96,1760.91
		c-13.95,13.2899-27.1599,27.34-39.8099,41.87c10.4299-5.01,19.8099-11.92,29.59-18.05c18.58-12.27,36.4401-25.59,55.33-37.4
		c14.66-9.6499,29.88-18.4199,44.91-27.46c-5.39-8.24-8.84-17.5-12.75-26.47C1200.28,1714.47,1174.1,1736.63,1149.96,1760.91
		 M1799.91,1706.52c1.58,3.6,1.9299,8.62,6.2999,10.02c-0.63-0.0901-1.89-0.27-2.52-0.36
		c14.5801,34.2599,26.8101,69.6599,45.13,102.21c20.55,4.85,40.9301,10.39,61.3301,15.83c-3.26-9.52-7.51-18.64-11.4301-27.89
		c-9.27-20.88-18.5699-41.75-28.7-62.23C1844.86,1735.38,1821.38,1722.1801,1799.91,1706.52 M1506.24,1746.0699
		c0.47,27.9501,1.03,55.91,1.75,83.87c-0.11,17.1901,3.62,34.41,11.05,49.9401c10.62,23.1,27.87,42.99,49.13,56.9301
		c-2.9301-4.3701-6.4801-8.27-9.37-12.65c-10.3301-14.74-18.62-31.23-21.91-49.03c-1.25-7.28-2.4301-14.73-1.41-22.11
		c1.77,21.97,15.48,42.41,34.9501,52.7c-1.9701-5.6699-4.3101-11.1899-6.2001-16.87c-11.53-32.6-18.4399-66.85-20.28-101.38
		c17.5,23.9501,38.25,45.6,62.0601,63.35c10.64,8.5601,22.8199,15.01,33.1,24.02c19.2001,16,32.55,38.65,37.75,63.0601
		c3.59,15.41,2.98,31.36,5.37,46.95c7.21-11.5,10.7001-25.26,10.28-38.8099c-0.29-12.8-4.29-25.26-10.09-36.5901
		c-16.04-30.1-36.89-57.74-62.3201-80.5399c-20.83-19.5-43.5-37.05-67.49-52.48C1536.88,1766.73,1521.39,1756.65,1506.24,1746.0699
		 M233.06,1778.89c-12.75,2.2999-25.7,3.41-38.65,3.5c5.08,5.22,12.47,7.37,19.63,6.9c-3.42,4.95-8.68,8.1799-14.03,10.6899
		c2.52,0.21,4.86,1.2001,7.1,2.35c-7.55,3.8101-14.98,7.86-22.22,12.24c12.3,1.89,24.16,5.88,35.95,9.76
		c31.07,9.8301,62.19,19.51,93.37,28.9801c-16.33,17.46-37.43,30.1899-60.26,37.1899c10.1,1.46,20.84,1.96,30.36-2.37
		c-2.89,2.54-6.21,4.53-9.02,7.16c-5.86,5.2899-10.74,11.74-13.83,19.0299c16.47-7.08,32.23-15.7699,47.3-25.46
		c13.92-9.29,27.49-19.15,42-27.51c-6.74,0.34-13.51-0.11-20.24,0.52c1.03-4.2,3.14-8.1,6.45-10.91
		c-5.1-1.6-11.63-4.6599-11.5-10.9299c0.9-8.49,8.04-14.22,13.55-20.01c-19.54,5.4199-40.06,6.6699-60.2,4.71
		c-20.12-2.1899-39.37-8.71-58.81-13.99c22.44-11.63,43.72-25.45,64.14-40.3199C266.83,1771.0699,250.01,1775.6899,233.06,1778.89
		 M1873.08,1858.01c6.7001,9.65,13.63,19.1799,19.5901,29.33c11.98,19.8201,21.6799,41,29.23,62.9c1.53,4.21,2.5,8.66,4.62,12.65
		c0.21-0.05,0.62-0.15,0.83-0.2001c2.91-7.1699,4.23-14.9199,4.65-22.62c0.71-7.71-0.78-15.35-1.38-22.99
		c-1.71-14.9299-4.26-29.7999-8.1899-44.3099C1905.8101,1868.42,1889.49,1863.0699,1873.08,1858.01z"/>
	<path fill="#333333" d="M1072.1,525.7c10.49-2.28,21.3301-2.35,31.99-1.57c15.26,2.37,30.62,5.04,45.0701,10.64
		c16.83,6.68,33.5699,14.09,48.4299,24.57c10.3301,7.02,20.51,14.2599,30.7101,21.47c-10.88-1.7-22.05-2.72-32.41-6.66
		c-8.33-4.41-16.89-8.47-25.9401-11.17c-16.72-4.87-33.7899-8.34-50.84-11.77c-10.99-1.07-22.1799-0.63-32.95,1.92
		c-31.49,8.79-62.63,18.92-93.0001,31.04c0.09-0.63,0.26-1.91,0.35-2.54c-9.42,4.16-18.89,8.21-28.17,12.7
		c-6.26,3.18-11.9,7.4-17.73,11.27c-1.91,1.36-5.73,2.16-6.46-0.84c-3.94-10.17-1.81-22.21,4.96-30.7
		c3.58-4.35,7.05-9.44,12.59-11.41c6.98-3.41,13.25-8.05,19.89-12.05c10.8-6.41,23.03-9.94,35.27-12.39
		c15.64-2.71,31.28-5.54,46.6801-9.39C1064.4399,527.94,1068.16,526.42,1072.1,525.7z"/>
	<path fill="#333333" d="M647.4,607.46c15.96-6.57,33.77-7.52,50.7-5.04c10.22,1.78,20.46,4.68,29.28,10.31
		c13.37,8.53,25.6,18.94,35.83,31.09c3.71,4.6,7.49,9.26,10.13,14.6c-13.08-13.65-27.58-26.05-43.67-36.03
		c-13.21-8.19-28.73-11.07-43.78-13.87c-8.83-0.53-17.96-0.83-26.45,2.04c-7.15,1.92-13.6,5.84-19.04,10.8
		c-6.07,5.78-11.57,12.34-15.08,20.01c-2.2,4.39-3.28,9.2-4.87,13.81c-0.19-10.67,1.12-21.83,6.63-31.18
		C631.6,616.27,639.18,610.74,647.4,607.46z"/>
	<path fill="#333333" d="M1052.9399,609.17c8.9-1.95,17.8301-4.29,27.02-4.17c23.7101-0.06,48.23,2.44,69.62,13.46
		c10.4301,4.87,19.7301,11.93,27.7101,20.2c4.7,4.79,8.59,10.4301,11.12,16.67c-9.52-5.83-18.7001-12.24-27.17-19.51
		c-16.9-14.29-38.72-21.19-60.33-24.13c-9.3101-0.79-18.6801-0.51-27.99,0.01c-19.87,1.79-38.52,10.4-54.91,21.42
		c-9.19,6.59-18.13,13.86-24.85,23.05c-2.53,3.39-5.09,6.75-8.0099,9.81c0.72-7.95,3.86-15.67,9.21-21.63
		c6.98-7.74,15.22-14.22,23.66-20.28C1028.46,616.68,1040.6899,612.44,1052.9399,609.17z"/>
	<path fill="#333333" d="M1097.03,619.97c1.83,8.96-1.29,18.32-7.28,25.08c13.1,0.14,26.85-5.92,33.15-17.89
		c-1.87,6.4-7.51,10.47-10.4501,16.25c-0.85,1.34-0.6599,2.9301-0.2999,4.41c6.91,0.09,13.76-2.44,19.4199-6.32
		c4.3401-2.92,7.3501-7.28,10.1801-11.58c-2.02,9.69-6.71,18.72-13.55,25.88c6.87,0.17,14.26-0.32,19.92-4.7
		c4.0699-2.77,6.4401-7.18,8.9401-11.27c-2.9501,9.98-9.41,18.66-17.4401,25.17c10.5601,0.73,21.4-2.1,29.84-8.59
		c2.6901-1.89,4.6801-4.62,7.4501-6.39c-5.88,9.61-14.1,17.48-23.12,24.12c9.62,0.58,19.71-0.3,28.2999-5.01
		c4.39-2.18,8.2101-5.27,11.92-8.42c-5.12,8.48-13.36,15.38-23.0601,17.85c-4.4299,1.17-9.0199,0.56-13.51,0.49
		c4.04,3.41,9.2201,5.47,14.5601,5.25c8.99-0.06,17.74-2.71,26-6.07c-9.86,8.99-23.92,12.84-37.03,10.79
		c-5.7-0.88-10.3199-4.5-15.37-6.95c5.42,4.93,11.2101,9.57,15.0801,15.93c-3.4601-2.66-7.0701-5.3-11.3201-6.48
		c-4.28-1.69-8.92-0.84-13.38-1.15c7.14,1.14,13.48,5.16,18.55,10.2c1,0.88,1.26,2.24,1.76,3.45
		c-8.5801-5.74-19.16-8.65-29.4401-7.73c6.38,2.04,11.8101,6.7,15.16,12.46c-7.34-7.51-18.24-8.71-28.15-9.59
		c5.92,4.2401,11.05,10.47,12.05,17.88c-2.29-5.25-5.52-10.47-10.8-13.13c-4.33-2.55-9.58-3.04-14.41-1.83
		c5.5701,5.28,10.5601,11.24,14.05,18.11c-6.7-5.67-13.51-11.24-20.6-16.41c-1.25-1.0601-2.97-0.9-4.4401-1.1801
		c2.37,5.1801,4.3201,10.72,4.05,16.51c-2.08-7.31-7.83-13.23-14.72-16.19c-0.7101-0.08-2.13-0.25-2.8401-0.34
		c-0.11,4.26,0.5901,8.49,1.7201,12.59c-3.15-4.61-7.2201-8.42-11.49-11.96c-1.5701,2.72-1.9701,5.86-1.8601,8.96
		c-1.24-1.9-2.25-4.39-4.63-5.02c-2.58-0.55-6.1299-0.41-6.59,2.84c-1.27-2.02-2.4199-5.16-5.35-4.78
		c-1.76-0.22-3.24,0.7599-4.59,1.71c-3.9501-5.51-10.67-8.56-17.41-7.97c-9.04,0.87-18.13,1.44-27.1,2.96
		c-6.79,0.91-14.45,0.75-19.87-4.04c8.37-8.9,15.74-18.82,25.4-26.43c4.29-3.3,8.78-6.52,11.91-11.03
		c2.73-3.48,4.22-7.67,6.0699-11.6299c0.71,2.8199,1.3701,5.65,2.07,8.49c4.88-2.22,7.88-7.15,8.35-12.4
		c0.42,2.55,0.77,5.1,1.13,7.66c5.41-3.73,11.1801-8,12.7201-14.8101c0.3199,2.88,0.8099,5.75,1.5699,8.5601
		c3.7-2.91,8.02-5.3101,10.64-9.35c2.35-3.54,2.98-7.83,3.74-11.91c0.13,6.14,0.72,12.27,0.67,18.42
		c7.46-3.89,11.71-11.75,13.1799-19.79c0.1901,6.43-0.36,12.87-1.6799,19.17c5.99-2.1,12.0399-4.81,16.11-9.88
		C1094.2,629.33,1095.88,624.64,1097.03,619.97 M1007.73,678.13c0.62,5.57,3.16,10.67,6.59,15.03c5.55,0.05,11.23,0.02,16.52,1.96
		c9.79,3.61,20.29,5.06,30.7001,4.65c-3.3501-3.09-6.9401-6.03-9.4-9.91c-6.48-9.46-7.51-22.03-3.6901-32.72
		C1033.35,660.43,1019.29,667.92,1007.73,678.13 M1080.28,670.77c3.6599,3.63,10.6899,0.27,10.5-4.78
		c0.23-2.14-1.13-3.9-2.0801-5.67c-1.9099-0.33-3.83-0.77-5.75-0.6C1077.62,659.74,1076.26,667.98,1080.28,670.77 M1119.84,669.37
		c0.14,9.73-3.85,19.2-10.5599,26.19c11.21-2.37,22.58-6.47,30.83-14.74C1132.59,678.48,1126.0699,674.04,1119.84,669.37
		 M987.59,692.73c-2.34,1.33-4.29,3.2-5.78,5.42c4.67,1.03,9.54,1.2,14.27,0.4c4.5-0.76,8.52-3.15,13.02-3.95
		c-1.5-4.49-3.4-8.81-5.17-13.18C998.74,685.54,993.29,689.35,987.59,692.73z"/>
	<path fill="#333333" d="M765.87,904.14c-5.69-6.49-3.38-16.06-0.1-23.15c-0.97,6.5-1.98,14.74,3.66,19.48
		c2.39,2.64,6.48,2.11,9.2,0.27c2.25-1.44,3.63-3.8,5.5-5.66c2.56-1.44,4.71,0.89,5.92,2.92c3.89,5.18,7.22,10.79,11.23,15.87
		c8.06,7.55,19.24,10.2,29.75,12.3c6.35,0.03,12.68-0.83,19.04-0.66c-8.79,3.7-18.38,7.42-28.05,5.11
		c-10.38-1.84-18.11-9.45-26.41-15.28c-3.76-2.53-6.74-6.71-11.55-7.2C777.96,907.48,771.02,907.94,765.87,904.14z"/>
	<path fill="#333333" d="M929.6,882c2.42,6.8,2.34,14.6-0.18,21.36c-2.16,5.72-8.04,8.52-13.5,10.2c-8.96,1.4-18.09,0.43-27.05-0.51
		c-8.91-1.94-17.97-0.2-26.79,1.29c-6.87,1.24-11.78,7.43-18.96,7.62c0.79-4.73,1.9-9.84,5.65-13.17c3.12-3.31,7.9-3.66,12.17-3.91
		c11.03-0.68,22.09-2.36,33.15-1.25c8.17,0.11,16.18,3.58,24.37,1.71C927.1,901.57,931.41,890.98,929.6,882z"/>
	<path fill="#333333" d="M860.91,1007.49c9.05-1.18,16.79-7.25,26.02-7.62c12.73-0.63,25.45,0.56,38.01,2.58
		c10.56,1.15,20.77,4.16,31.11,6.43c12.63,2.61,24.83,8.15,37.95,7.65c7.59-0.03,15.21-1.16,22.79-0.22
		c2.52,0.29,4.63,1.79,6.61,3.29c-1.2401,1-2.7,1.81-3.64,3.13c-5.05,8.9401-10.63,17.79-18.19,24.85
		c-7.2,7.2001-15.57,13.05-22.99,20.01c-6.49,5.99-13.9,10.86-21.22,15.74c-7.78,5.4401-15.94,10.3201-24.34,14.7301
		c-11.29,4.9299-22.45,10.36-34.46,13.36c-9.32,2.7-19.02,3.0499-28.55,4.5599c-8.31,1.36-16.66-0.1-24.94-0.7999
		c-13.63-0.7301-26.29-6.3601-38.7-11.55c-8.06-3.37-13.78-10.15-19.93-16.05c-7.24-6.9399-13.31-15.0399-18.26-23.74
		c-4.17-6.6599-7.95-13.59-10.72-20.95c-2.79-7.33-6.4901-14.26-9.7401-21.36c-2.25-1.9301-4.71-3.78-5.5699-6.77
		c7.29-0.42,14.53,1.01,21.81,0.72c8.7599-0.69,17.53-2.07,25.88-4.88c11.85-3.93,23.89-7.36,36.17-9.65
		c7.78-0.13,16.22-1.4,23.35,2.55C852.98,1005.31,856.65,1007.92,860.91,1007.49 M877.61,1006.47
		c-6.71,2.1201-13.27,6.46-20.58,5.03c-5.51-1.71-10.19-5.81-16.16-6.12c-6.98-0.24-14.1-0.57-20.95,1.12
		c-11.54,2.5-22.7,6.43-34,9.76c-11.89,3.37-24.32,4.03-36.59,3.07c3.24,7.4999,7.25,14.67,10.02,22.3799
		c2.38,6.2101,5.77,11.9501,9.17,17.64c4.28,7.52,9.32,14.64,15.29,20.92c6.88,7.47,14.08,15.0599,23.3,19.64
		c7.96,3.7,16.3,6.47,24.59,9.3199c7.22,2.38,14.91,2.24,22.4,3c3.95,0.29,7.91,1.1,11.88,0.59c13.19-1.63,26.69-2.1,39.35-6.5599
		c6.49-2.4,12.92-4.9401,19.26-7.71c8.09-3.77,16.45-7.0901,23.8-12.25c8.95-6.39,18.67-11.7101,27-18.9501
		c5.81-4.45,11.14-9.46,16.69-14.22c11.6-7.95,20.05-19.53,27.09-31.52c-8.2-2.46-16.83-0.42-25.21-0.58
		c-11.68,0.47-22.71-3.97-33.86-6.73c-8.69-1.93-17.27-4.35-26.0099-6.04c-12.98-1.71-25.94-4.43-39.09-4.02
		C889.16,1004.37,882.94,1003.54,877.61,1006.47z"/>
	<path fill="#333333" d="M754.52,1025.95c8.35,5.0801,16.4,11.78,26.48,12.8601c7.7,0.7999,15.5,1.47,23.21,0.34
		c7.35-1.0601,15.13-1.54,22.15,1.36c3.21,1.5,6.79,1.53,10.25,1.98c11.65,5.55,25,3.49,37.31,2.14
		c10.27,2.34,20.02-2.63,29.83-4.8199c8.16-2.28,16.8,0.1799,24.97-2.1001c1.76-0.4399,3.57-0.9099,5.4-0.4299
		c8.16,1.6899,16.54,1.35,24.82,0.95c7.71-0.1699,15.15-2.38,22.69-3.77c5.81-1.1,11.53-2.6499,17.08-4.71
		c4.65-1.73,9.64-2.04,14.52-2.63c-1.79,4.51-6.57,6.61-11.15,6.66c-7.46,0.3199-13.77,5.09-21.2,5.5499
		c-8.39,0.9601-16.7,2.5-25.01,3.9701c-6.04,1.12-11.9-1.3201-17.92-1.0801c-4.01,0.0701-8.04-0.1699-12.04,0.29
		c-10.2,1.79-20.54,2.75-30.81,4.03c-6.18,0.75-11.74,4.14-18.02,4.33c-8.05,0.3101-16.11-0.0599-24.15,0.39
		c-10.74,0.5-20.62-4.23-30.94-6.3101c-5.31-0.75-10.71-0.58-16.01,0.05c-6.64,0.84-13.35,0.38-20.02,0.51
		c-4.19,0.12-7.96-1.96-11.66-3.64C766.54,1038.28,759.61,1032.83,754.52,1025.95z"/>
</g>
</svg>
